<?xml version="1.0" standalone="no"?>
<!DOCTYPE svg PUBLIC "-//W3C//DTD SVG 20010904//EN"
 "http://www.w3.org/TR/2001/REC-SVG-20010904/DTD/svg10.dtd">
<svg version="1.0" xmlns="http://www.w3.org/2000/svg"
 width="564.000000pt" height="352.000000pt" viewBox="0 0 564.000000 352.000000"
 preserveAspectRatio="xMidYMid meet">

<g transform="translate(0.000000,352.000000) scale(0.100000,-0.100000)"
fill="#000000" stroke="none">
<path d="M0 2320 c0 -1038 2 -1200 14 -1198 8 2 15 0 15 -4 2 -22 0 -28 -10
-28 -5 0 -7 5 -4 10 3 6 1 10 -4 10 -8 0 -11 -171 -11 -555 l0 -555 2820 0
2820 0 0 1760 0 1760 -2820 0 -2820 0 0 -1200z m1232 1151 c-5 -14 -4 -14 12
2 19 19 36 22 36 7 0 -15 33 -45 48 -44 6 1 17 2 22 3 6 0 9 7 8 14 -4 15 -31
27 -38 17 -3 -4 -11 -2 -17 5 -10 11 10 14 115 15 209 2 334 0 343 -5 4 -3 10
-1 13 4 10 16 48 0 41 -18 -3 -8 -3 -13 0 -9 4 3 22 0 41 -8 23 -10 34 -11 34
-3 0 6 7 9 15 5 8 -3 15 -1 15 5 0 6 5 7 10 4 6 -4 9 -1 8 6 -3 13 69 31 85
22 4 -3 70 -4 145 -3 75 1 218 1 317 1 99 -1 187 -1 195 -1 8 0 70 0 138 0 67
1 127 -2 132 -5 5 -3 11 -2 13 3 6 8 161 6 184 -2 7 -3 24 -1 38 4 17 7 25 6
25 -1 0 -8 4 -8 14 0 10 8 16 9 21 1 4 -6 13 -7 23 -2 9 5 52 7 96 6 69 -3 81
-7 102 -29 25 -27 45 -35 24 -10 -10 12 -10 15 3 15 10 0 14 6 11 15 -5 11 0
13 24 5 17 -4 32 -6 35 -4 5 5 236 8 437 5 80 -1 150 -1 155 -1 49 6 351 -3
353 -11 2 -5 14 -9 27 -9 12 0 33 -9 46 -20 l24 -19 -40 -1 c-22 -1 -79 -2
-127 -2 l-88 0 -1 -61 c0 -34 -2 -74 -3 -89 -1 -23 2 -26 29 -26 16 1 49 0 71
0 38 -2 42 -4 40 -27 -1 -17 -7 -25 -19 -25 -12 0 -16 -4 -11 -12 6 -10 4 -10
-7 -2 -8 7 -47 11 -90 10 l-76 -1 4 112 c5 127 8 124 -84 119 -29 -2 -53 0
-53 5 0 4 -12 4 -28 0 -15 -4 -55 -6 -90 -5 l-62 2 2 -34 c2 -26 6 -33 18 -29
12 4 12 3 -1 -8 -11 -8 -16 -26 -15 -55 1 -44 3 -45 49 -42 15 1 34 -3 42 -10
9 -7 15 -8 20 0 3 5 13 10 21 10 10 0 14 -12 14 -44 0 -25 -4 -47 -9 -50 -5
-4 -7 2 -5 11 5 16 -5 18 -93 18 l-98 0 0 115 1 115 -158 0 -158 0 -1 -30 c-1
-16 -1 -33 0 -37 0 -4 2 -28 3 -52 1 -50 16 -60 57 -40 19 10 27 10 39 -2 13
-13 17 -13 36 1 11 9 29 18 39 22 25 8 21 21 -8 21 -14 0 -25 -5 -25 -10 0 -6
-7 -5 -15 2 -8 7 -28 10 -45 8 -19 -3 -29 -1 -27 6 2 6 1 23 -3 37 l-8 26 77
-4 c42 -3 82 -10 89 -15 8 -7 12 -7 12 1 0 6 7 11 15 11 16 0 17 -5 20 -128 1
-45 4 -85 7 -88 11 -10 161 -14 174 -3 7 5 15 6 17 2 9 -14 70 -15 78 -1 6 9
11 9 21 0 12 -9 15 3 17 73 l2 85 -43 0 c-24 0 -49 -5 -56 -12 -7 -7 -12 -8
-12 -2 0 6 -7 11 -15 11 -11 0 -13 -6 -9 -20 4 -13 2 -18 -7 -15 -9 3 -12 19
-10 49 1 24 4 45 6 47 4 4 50 6 133 4 l72 -2 0 -115 0 -116 40 3 c22 1 40 6
40 12 0 6 5 5 12 -2 18 -18 88 -16 88 2 0 8 5 18 10 21 6 4 10 3 9 -2 -5 -27
1 -35 16 -23 9 7 15 8 15 2 0 -5 19 -9 43 -8 l42 1 0 84 0 84 -72 -2 -73 -2 0
30 0 31 103 -1 102 -2 -1 -102 c-1 -57 2 -108 5 -113 6 -10 83 -14 242 -13
l76 1 -2 40 c-1 33 2 40 17 40 12 0 18 -7 18 -22 0 -19 2 -20 10 -8 7 11 10 5
10 -23 0 -21 4 -36 9 -33 13 8 10 -48 -3 -56 -7 -5 -5 -8 6 -8 25 0 34 -39 11
-55 -10 -9 -13 -14 -5 -15 15 0 16 -56 1 -66 -9 -5 -10 1 -5 22 6 23 5 27 -5
17 -15 -15 -33 -17 -24 -3 3 6 4 10 0 10 -3 0 -10 -10 -15 -22 -7 -19 -9 -20
-9 -5 -1 10 -7 17 -13 15 -13 -5 -15 -9 -17 -53 -1 -17 -9 -29 -26 -35 -27
-10 -32 -24 -14 -36 6 -3 15 0 20 7 6 10 9 8 9 -8 0 -13 5 -23 11 -23 6 0 9 7
5 15 -3 8 0 15 7 16 9 0 9 2 0 6 -20 7 -15 20 9 26 17 5 19 9 9 20 -9 12 -8
16 3 20 11 5 14 -2 11 -29 -2 -23 1 -32 8 -28 7 3 4 -1 -6 -9 -19 -16 -14 -42
10 -51 18 -7 35 2 28 15 -7 11 -3 11 19 3 12 -4 13 -11 6 -24 -5 -9 -6 -21 -2
-24 4 -4 7 -15 7 -23 0 -9 6 -18 14 -21 10 -3 12 0 8 12 -4 9 -2 16 2 16 5 0
12 -6 14 -12 3 -8 6 -5 6 5 1 10 7 17 14 15 16 -6 16 -44 0 -41 -7 2 -13 -1
-13 -7 0 -5 -7 -7 -15 -4 -11 5 -13 2 -9 -9 3 -9 11 -14 17 -11 16 5 43 -13
34 -23 -5 -4 -12 -1 -17 7 -7 12 -13 10 -31 -10 l-21 -25 6 32 c9 38 -10 55
-31 27 -14 -19 -14 -19 -11 1 2 12 -2 19 -9 18 -7 -2 -10 3 -7 10 3 9 -7 14
-31 15 -31 2 -35 0 -35 -20 0 -33 13 -49 29 -38 9 5 22 3 33 -3 16 -10 22 -9
34 7 10 14 14 16 14 5 0 -24 -14 -35 -42 -34 -15 1 -26 -2 -26 -5 3 -15 -16
-39 -26 -33 -6 3 -8 3 -4 -2 4 -4 3 -14 -3 -22 -9 -9 -8 -13 0 -13 6 0 11 5
11 10 0 6 11 10 25 10 29 0 32 -12 8 -36 -13 -13 -14 -19 -5 -22 6 -2 12 -10
12 -18 0 -15 30 -54 42 -54 20 0 6 48 -17 60 -28 15 -32 25 -11 33 32 13 65
-85 34 -104 -10 -7 -10 -9 0 -9 7 0 11 -4 7 -10 -3 -5 -13 -6 -23 -3 -12 4 -9
-2 8 -19 26 -27 42 -29 20 -3 -10 12 -10 15 0 15 7 0 10 6 7 14 -3 8 2 24 12
35 17 19 19 20 25 5 4 -10 -1 -25 -10 -36 -10 -10 -14 -21 -11 -25 4 -3 7 -1
7 6 0 7 4 10 10 6 5 -3 8 -11 6 -18 -1 -7 -1 -9 1 -4 8 14 22 7 17 -8 -5 -11
-1 -14 12 -9 18 5 18 5 1 -6 -9 -6 -15 -15 -12 -21 4 -5 1 -9 -5 -9 -6 0 -4
-10 6 -25 9 -14 12 -25 8 -25 -12 0 -50 58 -46 71 1 6 -2 8 -7 4 -6 -3 -8 -12
-4 -20 5 -14 -6 -19 -34 -16 -7 1 -13 -3 -13 -9 0 -6 4 -9 9 -6 5 3 9 0 8 -7
-1 -31 4 -47 14 -47 7 0 9 11 6 29 -6 31 16 53 27 26 3 -10 0 -12 -11 -8 -11
4 -14 3 -9 -6 4 -6 9 -29 11 -51 2 -30 0 -37 -11 -33 -9 3 -14 -2 -15 -13 -1
-11 -2 -31 -3 -46 -1 -31 -16 -50 -17 -22 0 12 -2 14 -6 5 -5 -11 -7 -11 -15
0 -6 10 -8 7 -6 -11 2 -17 8 -24 20 -22 23 4 60 -46 53 -72 -3 -12 -2 -15 1
-8 9 18 32 15 46 -8 15 -23 30 -27 22 -5 -4 8 -1 21 5 29 6 7 8 16 4 19 -3 4
-2 7 4 7 16 0 24 -40 9 -46 -7 -3 -13 -10 -14 -17 0 -7 -2 -23 -3 -37 -1 -14
-6 -38 -12 -53 -8 -23 -7 -31 4 -38 11 -7 11 -9 -3 -9 -9 0 -22 8 -27 18 -6 9
-11 12 -11 5 0 -15 29 -45 39 -39 4 3 7 -4 7 -15 0 -19 -1 -19 -13 -3 -11 15
-12 14 -10 -5 1 -11 7 -21 14 -21 18 0 30 -30 26 -68 -2 -23 1 -31 9 -26 7 4
8 3 4 -4 -4 -7 -13 -12 -21 -12 -10 0 -13 10 -10 36 3 23 1 33 -5 29 -6 -4 -8
-16 -4 -28 6 -19 5 -20 -9 -9 -13 11 -17 9 -25 -15 -6 -15 -11 -22 -11 -15 -1
7 -5 11 -10 8 -5 -3 -11 1 -15 9 -3 8 -1 15 5 15 6 0 7 5 3 12 -5 7 -2 9 7 6
10 -4 14 4 15 33 2 40 -3 44 -53 42 -7 -1 -13 3 -13 8 0 5 -5 9 -11 9 -8 0 -9
-4 0 -13 6 -8 7 -18 3 -23 -4 -4 0 -3 10 4 11 9 18 10 23 2 3 -6 10 -8 14 -6
4 3 8 -1 8 -9 0 -8 -4 -12 -9 -9 -4 3 -9 -1 -9 -8 -5 -40 -3 -56 9 -82 8 -16
9 -25 3 -22 -7 4 -11 -1 -11 -14 0 -12 5 -18 10 -15 6 3 10 1 10 -4 0 -15 -13
-14 -29 2 -8 6 -11 7 -8 2 3 -6 2 -17 -4 -25 -6 -10 -9 -11 -9 -2 0 6 -8 12
-17 12 -15 0 -16 2 -3 10 13 8 12 10 -4 10 -15 0 -17 -5 -12 -26 5 -18 3 -24
-5 -19 -6 4 -4 -4 5 -17 9 -14 13 -28 9 -31 -3 -4 3 -7 15 -7 12 0 22 -4 22
-9 0 -5 -8 -7 -18 -4 -12 3 -22 -4 -30 -21 -8 -19 -16 -24 -29 -19 -17 7 -17
6 0 -20 9 -14 17 -32 16 -39 0 -10 -2 -10 -6 0 -6 15 -33 16 -33 1 0 -5 5 -7
10 -4 6 3 13 -1 16 -9 3 -9 10 -13 15 -10 5 3 9 0 9 -6 0 -6 5 -8 10 -5 6 3 7
17 4 31 -5 18 -3 24 7 22 28 -6 29 -37 4 -64 -27 -29 -34 -54 -11 -35 12 10
17 8 26 -11 10 -21 10 -21 -3 -5 -13 15 -15 16 -21 2 -10 -26 -25 -16 -21 15
2 16 0 32 -6 35 -5 4 -9 0 -9 -8 0 -8 -7 -17 -15 -21 -18 -7 -20 -38 -2 -34 6
1 23 -4 35 -11 18 -9 22 -18 18 -36 -4 -14 -1 -25 7 -28 7 -3 5 -6 -5 -6 -20
-1 -24 -16 -8 -26 15 -9 1 -27 -16 -21 -11 4 -12 1 -4 -13 7 -15 6 -20 -6 -25
-9 -3 -20 -4 -25 -1 -5 4 -6 -2 -2 -12 7 -17 6 -17 -17 -2 -24 16 -25 15 -27
-9 -1 -19 1 -22 9 -11 8 11 8 9 4 -5 -4 -11 -1 -23 6 -27 7 -4 10 -11 6 -14
-3 -3 -13 1 -21 10 -20 19 -38 20 -31 0 4 -8 10 -13 14 -10 5 3 15 -1 23 -9 9
-9 19 -11 28 -5 8 5 10 9 6 9 -4 0 -2 10 5 23 7 12 11 28 10 35 -4 17 15 15
22 -3 3 -8 1 -15 -4 -15 -6 0 -10 -16 -10 -35 0 -28 -4 -35 -20 -35 -11 0 -20
-5 -20 -11 0 -5 5 -7 10 -4 6 3 10 1 10 -4 0 -6 -7 -11 -15 -11 -8 0 -15 4
-15 9 0 14 -33 6 -38 -9 -3 -7 -1 -10 4 -7 5 3 9 -10 9 -29 0 -19 -4 -32 -10
-31 -5 2 -10 24 -10 49 0 41 -2 45 -17 37 -10 -5 -18 -14 -18 -20 0 -6 5 -7
12 -3 8 5 9 2 5 -10 -5 -11 -3 -15 5 -10 7 4 8 3 4 -4 -4 -7 -17 -12 -28 -12
-25 0 -19 -10 8 -14 10 -2 20 -9 22 -16 3 -9 0 -10 -9 -4 -11 6 -10 3 1 -11 9
-11 10 -16 3 -11 -17 10 -17 -16 -1 -32 9 -9 10 -15 2 -20 -6 -4 -14 -17 -18
-29 -6 -18 -3 -23 11 -23 15 0 16 -2 3 -10 -12 -8 -13 -13 -2 -30 17 -27 15
-33 -8 -27 -16 4 -20 0 -20 -20 0 -16 4 -22 12 -17 7 5 9 2 5 -9 -8 -20 18
-30 33 -12 14 17 5 35 -18 35 -15 1 -15 2 1 11 13 8 17 18 13 34 -5 19 -3 22
13 18 15 -4 17 -10 11 -37 -5 -24 -4 -33 6 -33 8 0 14 6 14 13 0 13 30 28 39
19 3 -3 -1 -10 -9 -15 -12 -8 -12 -10 -1 -10 9 0 12 -8 9 -25 -3 -13 -1 -22 3
-19 5 3 9 -7 9 -23 0 -22 -2 -25 -10 -13 -11 17 -13 9 -4 -14 5 -14 9 -14 22
-4 11 9 13 9 9 1 -4 -6 -3 -14 3 -18 5 -3 10 -1 10 4 0 6 7 11 16 11 12 0 11
-5 -7 -20 -17 -14 -20 -19 -9 -20 9 0 11 -3 5 -8 -6 -4 -16 -18 -23 -32 -7
-14 -10 -17 -8 -7 3 9 1 17 -5 17 -6 0 -7 5 -4 10 3 6 -1 10 -9 10 -17 0 -18
-20 -1 -32 12 -9 6 -15 -20 -20 -11 -1 -23 -7 -27 -13 -5 -6 -8 -5 -8 3 0 7
-5 10 -10 7 -6 -3 -10 -1 -10 4 0 6 5 11 10 11 6 0 10 4 10 9 0 5 -9 7 -20 4
-15 -4 -19 -11 -15 -27 6 -20 6 -20 -9 -2 -9 10 -13 23 -10 28 3 5 -6 7 -20 4
-34 -6 -48 -15 -40 -27 3 -5 0 -8 -7 -7 -10 2 -13 -12 -14 -49 0 -29 3 -53 7
-53 4 0 5 -6 2 -14 -3 -8 0 -17 7 -22 8 -5 10 -3 5 5 -5 7 -2 18 7 24 18 15
30 47 17 47 -6 0 -10 4 -10 8 0 5 6 9 14 9 7 0 12 -9 11 -21 0 -12 5 -34 13
-49 7 -16 11 -31 9 -34 -10 -9 -43 -10 -60 -1 -22 11 -48 -7 -40 -28 3 -8 0
-20 -6 -28 -8 -10 -8 -21 -1 -41 9 -23 7 -28 -10 -32 -11 -3 -20 -9 -20 -15 0
-5 9 -4 20 2 16 8 20 8 20 -4 0 -8 -5 -18 -10 -21 -6 -4 -7 -11 -4 -17 4 -7 2
-8 -5 -4 -15 10 -41 -11 -41 -33 0 -12 -9 -16 -37 -14 -117 6 -111 5 -105 27
8 30 17 34 82 30 66 -4 66 -4 65 81 0 28 5 53 10 57 6 5 5 8 -2 8 -7 0 -13 6
-13 13 0 9 -36 12 -154 12 -85 0 -157 -3 -160 -5 -3 -3 -6 -54 -7 -113 -1 -96
-3 -106 -17 -95 -13 11 -15 10 -10 -2 4 -12 -4 -15 -38 -16 -25 0 -44 4 -44
10 0 7 -3 7 -8 1 -8 -12 -52 -15 -52 -4 0 4 -9 5 -20 2 -13 -3 -20 0 -20 8 0
31 17 39 83 41 l67 2 0 81 0 82 -52 5 c-29 3 -91 4 -137 2 -79 -3 -118 6 -106
25 2 4 -1 8 -8 8 -9 0 -12 -32 -12 -116 0 -64 -1 -123 -3 -131 -2 -12 -21 -15
-99 -14 -89 0 -97 2 -104 22 -11 29 5 37 67 34 72 -5 83 9 78 94 -2 37 -6 69
-8 71 -2 2 -42 5 -89 6 -71 2 -84 0 -80 -13 3 -10 2 -11 -4 -4 -4 7 -19 13
-33 14 -41 4 -106 -1 -92 -7 6 -2 12 -9 12 -14 0 -6 -4 -7 -10 -4 -6 4 -10
-16 -11 -52 -3 -159 0 -146 -39 -146 -160 1 -160 1 -160 28 0 20 5 25 26 25
15 0 33 -8 40 -17 7 -10 16 -14 20 -10 5 4 2 12 -6 17 -11 7 -5 10 22 10 20 0
38 -5 40 -12 3 -7 7 -5 11 6 4 10 3 15 -3 11 -14 -9 -12 9 2 23 7 7 8 12 2 12
-5 0 -11 28 -12 62 -1 33 -4 63 -6 65 -5 6 -118 6 -163 1 -18 -2 -33 -1 -33 3
0 3 -18 3 -39 -1 -21 -4 -46 -3 -55 2 -13 7 -16 4 -16 -19 -1 -85 -14 -169
-26 -176 -8 -5 -12 -12 -9 -18 4 -5 -1 -9 -10 -9 -11 0 -15 6 -11 18 4 12 1
19 -8 19 -8 0 -12 -6 -8 -15 3 -10 1 -13 -6 -8 -7 4 -12 2 -12 -3 0 -19 -20
-12 -21 7 -1 16 -2 16 -6 0 -2 -10 -11 -18 -19 -18 -8 0 -12 4 -9 10 9 15 -4
12 -21 -5 -20 -20 -44 -8 -42 21 2 23 6 24 68 26 36 0 75 0 87 -1 17 -1 21 2
16 14 -4 11 -8 13 -13 5 -5 -8 -11 -6 -20 5 -7 8 -8 15 -3 15 6 0 9 26 9 57
-1 49 -4 58 -21 61 -11 3 -26 9 -32 14 -9 7 -13 7 -13 0 0 -5 -9 -12 -20 -15
-13 -3 -18 -1 -13 6 4 6 0 8 -10 4 -9 -3 -19 -2 -22 3 -7 11 -166 3 -178 -9
-6 -6 -10 -24 -9 -41 0 -17 -4 -28 -9 -25 -5 4 -6 -3 0 -17 5 -13 9 -49 10
-80 l1 -58 -98 4 c-53 3 -100 5 -104 5 -5 1 -8 12 -8 25 0 21 5 24 46 28 25 2
52 0 60 -5 8 -5 14 -4 14 2 0 6 6 8 14 5 17 -7 23 32 18 114 l-4 52 -86 -2
c-48 -1 -90 -7 -94 -12 -5 -7 -11 -7 -20 2 -6 6 -34 12 -60 12 -55 0 -50 11
-53 -132 0 -43 -4 -80 -7 -83 -3 -4 -39 -6 -80 -6 -119 0 -113 -1 -116 26 -2
24 0 25 68 25 l70 0 0 30 c0 17 5 30 13 30 9 0 9 2 -1 9 -7 4 -12 12 -11 17 5
28 -3 54 -16 54 -8 0 -15 7 -15 15 0 8 -4 15 -10 15 -5 0 -10 -5 -10 -11 0 -8
-4 -8 -14 0 -17 14 -128 12 -138 -3 -5 -7 -8 -7 -8 2 0 7 -4 10 -10 7 -5 -3
-10 -2 -10 2 0 5 -18 7 -40 5 l-40 -4 0 -102 c0 -55 -4 -107 -9 -115 -10 -16
-121 -8 -132 10 -5 8 -8 8 -13 0 -4 -6 -17 -11 -30 -11 -17 0 -22 6 -22 23 1
29 19 35 88 30 l57 -3 -1 84 -2 85 -107 -2 c-76 -1 -105 -5 -98 -13 9 -11 2
-24 -13 -24 -5 0 -6 5 -2 11 4 8 0 9 -15 4 -14 -4 -23 -2 -26 8 -7 16 -37 19
-47 3 -10 -15 -10 -28 0 -22 5 3 5 -18 2 -46 -4 -27 -6 -71 -5 -97 2 -44 1
-47 -24 -46 -14 1 -38 -2 -53 -6 -16 -4 -28 -4 -28 0 0 4 -7 8 -15 8 -8 0 -15
-5 -15 -10 0 -5 -7 -4 -15 3 -8 6 -22 9 -32 6 -13 -4 -23 3 -35 24 -13 23 -13
28 -2 23 8 -3 14 -1 14 3 0 5 31 9 70 8 50 -1 70 3 70 12 0 7 2 18 3 26 2 7 2
10 0 6 -3 -5 -9 -8 -14 -8 -6 0 -7 6 0 17 5 10 5 26 0 41 -8 21 -7 23 8 18 15
-5 15 -4 -1 9 -11 8 -14 15 -8 15 7 0 12 7 12 15 0 10 -10 14 -35 13 -20 -1
-38 -5 -41 -10 -3 -5 -12 -4 -20 3 -11 9 -17 9 -29 -1 -8 -7 -15 -9 -15 -5 0
4 -7 2 -15 -5 -12 -10 -15 -9 -15 4 0 10 -4 15 -9 12 -5 -3 -7 -15 -4 -26 5
-20 29 -25 108 -20 31 1 34 -7 26 -60 -1 -3 -29 -4 -63 -3 -37 2 -65 -1 -69
-8 -3 -6 -7 -44 -8 -85 l-2 -74 156 0 155 0 1 58 c0 55 5 159 8 174 0 4 8 5
16 1 9 -3 23 1 33 9 25 22 43 31 41 21 -4 -23 4 -31 34 -30 83 1 87 0 76 -33
-10 -28 -15 -30 -62 -31 -29 -1 -59 -2 -67 -3 -12 -1 -15 -18 -16 -83 -1 -46
3 -83 7 -84 5 0 35 0 67 -1 43 0 59 -4 64 -17 6 -14 7 -14 7 1 1 15 14 18 84
20 l82 3 0 107 c0 58 3 109 7 113 7 8 186 8 198 0 4 -2 5 -16 2 -31 -4 -21 -9
-25 -28 -21 -13 2 -24 1 -24 -2 0 -3 -21 -5 -46 -4 -43 1 -45 0 -44 -25 1 -15
1 -29 0 -32 -7 -16 -6 -101 1 -106 5 -3 40 -5 79 -5 47 0 70 -4 70 -12 0 -9 2
-9 8 0 12 18 102 20 113 2 5 -8 9 -9 9 -4 0 6 10 15 23 20 12 6 22 18 22 28 0
10 9 25 19 33 11 8 15 14 9 14 -7 0 -15 -4 -18 -10 -17 -27 -25 -2 -24 75 1
55 6 85 13 86 6 1 29 0 50 -1 32 -1 38 1 33 14 -4 10 -1 16 8 16 8 0 12 -6 9
-13 -3 -10 7 -14 42 -14 49 -1 65 -13 57 -44 -4 -15 -15 -19 -49 -19 -24 0
-47 0 -50 1 -4 0 -11 -5 -15 -13 -7 -11 -9 -11 -9 0 0 8 -5 12 -12 10 -8 -3
-13 -33 -14 -86 l-3 -81 92 -3 c59 -2 91 -7 90 -14 -1 -6 5 -11 12 -11 11 0
12 4 4 14 -9 11 1 13 55 13 l66 0 -2 65 c-2 37 1 67 7 69 7 2 6 7 0 15 -6 6
-9 26 -7 45 l4 34 105 0 105 1 -7 -27 c-4 -15 -8 -28 -9 -29 -1 -1 -30 -3 -66
-5 -58 -3 -64 -5 -70 -28 -3 -14 -4 -51 -2 -83 l4 -57 56 0 c38 0 52 -3 43 -9
-8 -5 -16 -17 -17 -25 -1 -9 2 -14 7 -10 5 3 9 -2 9 -10 0 -13 -49 -15 -372
-15 -285 -1 -374 2 -380 12 -6 9 -8 9 -8 -2 0 -11 -3 -11 -17 0 -11 9 -14 10
-9 2 5 -10 -20 -12 -108 -11 -103 1 -116 3 -122 20 -3 10 -10 18 -15 18 -14 0
-11 -28 4 -33 6 -2 -77 -5 -187 -5 -179 -2 -200 0 -212 15 -12 16 -13 16 -8 1
5 -15 -8 -16 -130 -17 -102 -1 -136 2 -136 12 0 8 -3 9 -8 1 -8 -12 -355 -19
-404 -8 -16 3 -28 12 -28 20 0 21 -20 17 -41 -8 -14 -16 -19 -17 -19 -6 0 10
-10 15 -27 16 -16 0 -32 1 -38 2 -5 1 -22 1 -37 0 -16 -1 -28 4 -28 10 0 6 -4
8 -10 5 -5 -3 -10 1 -10 10 0 9 -9 19 -20 22 -11 3 -17 9 -14 14 3 5 -1 12 -9
14 -10 4 -14 30 -15 100 l-1 95 74 0 c53 0 75 -4 76 -12 0 -10 2 -10 6 0 8 20
40 14 47 -10 8 -34 -8 -43 -82 -40 l-67 3 1 -81 c1 -44 3 -83 6 -86 7 -6 299
-6 305 0 2 2 4 49 5 104 0 80 -3 105 -16 117 -9 9 -16 24 -16 33 0 14 4 13 18
-5 16 -20 26 -22 120 -22 57 1 106 -2 109 -5 3 -3 2 -13 -1 -23 -4 -10 -6 -20
-4 -23 2 -3 -31 -7 -72 -10 l-75 -5 0 -80 0 -80 158 -3 158 -3 -3 44 c-2 25
-7 43 -12 40 -5 -3 -7 6 -4 21 3 15 1 26 -6 26 -8 0 -8 2 0 8 21 13 25 49 9
66 -9 9 -20 16 -25 16 -13 0 -22 -36 -20 -88 3 -83 11 -77 -100 -78 -98 -1
-100 -1 -106 23 -4 13 -4 26 -1 30 3 3 38 5 76 6 l71 1 0 82 0 82 -34 -2 c-19
-1 -38 -5 -42 -8 -4 -4 -15 -3 -26 3 -10 6 -24 8 -31 6 -7 -2 -22 -1 -33 4
-17 6 -23 3 -27 -12 -5 -19 -7 -19 -29 -5 -13 9 -40 15 -60 14 l-35 -1 1 -59
c1 -47 4 -57 16 -53 12 4 12 3 -1 -7 -9 -8 -16 -28 -16 -50 0 -21 -3 -41 -7
-45 -4 -5 -50 -8 -102 -8 l-94 0 0 28 c0 26 2 27 58 28 31 1 63 1 70 0 7 -1
12 12 13 36 4 113 3 133 -6 133 -278 7 -297 9 -308 24 -4 6 -5 -4 -2 -22 3
-19 2 -31 -4 -28 -5 3 -12 -1 -15 -10 -3 -8 -11 -12 -17 -8 -8 4 -7 9 2 15 11
7 11 9 -1 9 -9 0 -16 9 -17 20 -1 11 2 18 8 15 5 -4 9 -1 9 4 0 16 -16 13 -30
-4 -7 -8 -17 -15 -22 -15 -6 0 -5 7 2 15 16 19 22 92 9 101 -5 3 -9 -4 -9 -15
0 -12 -4 -21 -10 -21 -5 0 -10 -5 -10 -11 0 -5 4 -8 9 -5 12 8 21 -18 11 -34
-4 -7 -12 -10 -18 -6 -6 3 -12 -2 -15 -11 -3 -16 -5 -16 -12 2 -11 25 -30 45
-44 45 -23 0 -9 18 22 28 l32 11 -35 -4 c-42 -5 -66 7 -54 26 6 12 5 12 -9 0
-15 -11 -17 -11 -17 2 0 8 6 17 13 20 6 2 8 8 4 13 -5 5 -16 -1 -25 -14 -17
-22 -17 -22 -29 -3 -11 17 -9 21 10 27 12 4 30 7 40 5 9 -1 17 3 17 8 0 6 -5
10 -11 9 -6 -2 -15 7 -20 20 -7 19 -5 22 14 22 18 0 19 2 7 10 -8 5 -23 7 -34
4 -16 -5 -18 -2 -12 19 6 25 -14 54 -27 40 -4 -3 -7 -1 -7 5 0 18 21 14 36 -6
12 -14 13 -15 8 -1 -3 10 -1 20 4 23 12 7 7 55 -8 70 -8 8 -9 6 -4 -8 5 -13 4
-17 -4 -12 -7 4 -12 14 -12 22 0 11 7 13 26 8 24 -6 25 -5 15 14 -15 28 -14
69 2 76 6 3 3 4 -8 3 -14 -2 -19 -9 -17 -26 2 -21 0 -22 -14 -10 -12 10 -20
10 -35 1 -12 -8 -19 -8 -19 -2 0 6 6 13 14 16 8 3 13 15 11 26 -3 16 0 19 15
15 11 -3 20 -1 20 5 0 5 9 7 20 3 15 -5 18 -3 14 9 -3 9 -10 16 -15 16 -5 0
-9 5 -9 10 0 7 6 7 20 0 14 -7 20 -7 20 0 0 5 -4 10 -10 10 -5 0 -10 21 -10
46 0 37 -3 45 -15 40 -8 -3 -15 -2 -15 3 0 5 9 11 20 14 14 4 20 0 20 -11 0
-14 2 -14 9 -3 5 8 7 21 3 29 -4 11 -1 14 11 9 10 -4 17 -1 17 6 0 17 -36 47
-46 39 -4 -4 -4 -1 0 6 4 6 3 12 -3 12 -7 0 -7 8 -1 26 13 33 13 33 -12 26
-14 -3 -19 -2 -14 6 4 7 2 12 -3 12 -6 0 -11 -5 -11 -12 0 -6 -2 -9 -5 -7 -7
8 7 49 15 44 5 -3 12 0 16 6 5 8 9 8 14 -1 5 -9 10 -6 15 10 4 13 2 27 -5 34
-10 8 -11 6 -5 -11 5 -18 3 -22 -9 -17 -18 7 -18 7 -10 28 3 9 12 16 19 16 8
0 17 5 21 12 4 7 3 8 -4 4 -8 -5 -12 3 -12 23 0 16 -4 33 -10 36 -16 10 -7 55
12 61 19 6 25 24 7 24 -6 0 -9 12 -8 28 3 34 -21 88 -32 70 -5 -7 -7 1 -7 20
1 30 2 31 15 12 8 -11 20 -20 28 -20 8 0 11 -7 8 -21 -4 -12 0 -25 8 -30 10
-6 10 -9 2 -9 -7 0 -13 -8 -13 -17 0 -15 2 -16 10 -3 8 13 10 12 10 -4 0 -12
5 -16 15 -12 9 3 15 0 15 -9 0 -19 -17 -28 -23 -13 -4 9 -6 8 -6 -2 -1 -8 -11
-21 -22 -28 -17 -11 -19 -16 -9 -25 10 -9 14 -9 17 1 3 6 9 12 14 12 4 0 6 -6
3 -13 -3 -8 2 -14 10 -14 16 0 31 46 28 82 -1 12 1 15 4 6 5 -11 8 -11 14 0 7
10 11 10 23 0 13 -10 18 -7 29 16 9 18 21 27 33 26 17 -1 16 1 -5 19 -14 11
-20 17 -13 14 18 -9 43 4 42 23 0 10 -2 11 -6 4 -6 -16 -29 -17 -39 -1 -4 6
-3 8 4 4 6 -3 13 -2 17 3 8 13 -5 62 -15 56 -4 -3 -10 1 -13 9 -4 9 0 12 13 9
10 -3 21 0 24 6 4 7 1 8 -8 5 -11 -4 -16 0 -16 11 0 10 5 14 13 10 6 -4 1 3
-12 15 -19 16 -26 18 -33 8 -7 -10 -8 -9 -5 2 2 8 10 14 17 12 11 -3 11 0 0
13 -7 8 -10 18 -6 22 3 3 6 1 6 -6 0 -7 5 -9 10 -6 6 3 10 -1 10 -9 0 -8 5
-18 12 -22 6 -4 8 -3 4 4 -3 6 -2 14 4 17 6 4 8 14 5 24 -3 10 4 27 15 39 12
12 17 22 11 22 -5 0 -7 8 -4 18 3 12 -1 19 -11 19 -12 0 -13 -4 -5 -14 8 -9 8
-13 0 -13 -6 0 -11 4 -11 9 0 5 -7 17 -16 26 -9 9 -13 19 -10 23 4 3 11 0 15
-7 8 -12 11 -12 23 0 15 14 14 17 -24 59 -12 13 -13 20 -5 23 20 7 1 18 -37
22 -20 1 -33 -1 -30 -6 3 -5 1 -9 -4 -9 -6 0 -13 7 -16 16 -3 8 -2 12 4 9 6
-3 10 1 10 9 0 10 8 16 23 15 12 0 16 -3 10 -6 -24 -9 -13 -22 17 -21 23 1 30
6 30 22 0 16 3 18 9 7 7 -10 10 -11 16 -1 5 8 1 18 -10 27 -17 12 -18 13 -1
13 9 0 14 5 11 10 -3 6 5 10 19 10 20 0 24 -4 19 -17 -6 -17 -6 -17 10 -1 18
18 24 43 7 33 -5 -3 -10 0 -10 7 0 8 -3 9 -8 3 -4 -5 -22 -16 -41 -22 -26 -9
-32 -10 -23 -1 7 7 12 23 12 36 0 17 4 23 15 18 17 -6 21 9 5 19 -5 3 -10 10
-10 15 0 11 46 55 59 56 6 1 17 2 24 3 7 1 5 6 -5 12 -10 5 -18 15 -18 22 0 8
3 8 9 -1 6 -10 10 -7 15 12 7 29 26 35 26 9 0 -15 2 -16 10 -3 14 21 12 30 -5
30 -18 0 -20 16 -2 24 9 5 9 7 -1 12 -6 3 -9 10 -6 15 3 6 0 16 -6 24 -6 8
-13 26 -15 40 -1 15 -8 32 -15 38 -10 9 -11 9 -6 0 4 -7 2 -13 -3 -13 -6 0
-11 4 -11 10 0 5 -6 7 -14 4 -8 -3 -17 0 -22 7 -4 8 -3 10 4 5 7 -4 12 -3 12
2 0 5 -10 14 -23 20 -12 6 -16 11 -9 11 6 1 12 8 12 17 0 9 -5 12 -12 8 -8 -5
-7 -1 1 10 14 17 15 17 23 -4 4 -12 12 -19 17 -16 5 3 8 -2 7 -11 0 -9 6 -18
14 -21 12 -4 13 -2 3 9 -16 20 1 49 19 31 14 -14 42 -16 33 -2 -4 6 -11 8 -16
5 -5 -4 -9 0 -9 9 0 8 6 16 13 19 6 2 8 8 4 13 -5 5 -15 1 -23 -10 -16 -23
-19 -5 -3 27 10 21 9 21 -10 -2 -12 -13 -21 -18 -21 -12 0 7 -4 10 -9 6 -5 -3
-13 0 -17 6 -4 8 -3 9 4 5 11 -6 16 5 13 26 0 4 11 4 25 2 21 -4 25 -1 21 10
-4 9 -2 18 3 21 6 4 11 -4 11 -17 1 -20 2 -21 6 -3 3 11 10 23 16 27 6 4 4 13
-8 25 -18 17 -18 18 8 27 31 11 41 30 24 45 -18 14 -65 -55 -49 -71 17 -17 15
-27 -5 -22 -14 4 -18 17 -19 61 -1 40 1 51 8 40 15 -27 25 -20 20 14 -3 22 -1
30 7 25 6 -4 11 -2 11 4 0 7 -8 9 -20 5 -19 -6 -24 2 -21 30 0 6 -7 11 -18 11
-19 0 -23 -26 -6 -38 6 -5 2 -8 -7 -8 -20 0 -22 44 -4 70 10 13 9 13 -7 1 -24
-19 -44 -1 -28 26 11 16 11 15 5 -6 -5 -21 -4 -22 9 -10 10 10 12 19 6 31 -7
14 -6 16 6 12 8 -4 15 -13 15 -21 0 -8 4 -12 10 -8 5 3 7 12 3 20 -4 11 -1 13
11 9 11 -4 15 -2 11 8 -4 9 -16 14 -31 12 -25 -2 -25 -2 -7 19 18 21 18 21 -2
7 -11 -8 -28 -23 -38 -35 -10 -11 -16 -14 -12 -7 6 11 3 12 -15 2 -12 -6 -23
-10 -25 -8 -7 7 -17 92 -10 86 5 -4 14 0 22 10 14 16 14 16 9 0 -3 -10 -1 -20
4 -23 5 -3 7 -12 4 -19 -3 -8 -1 -17 5 -20 6 -4 13 5 17 21 7 25 8 25 15 8 7
-17 8 -18 8 -2 1 9 5 17 11 17 5 0 6 8 3 18 -6 15 -5 15 10 3 24 -19 31 -9 7
11 -15 14 -19 14 -24 2 -3 -8 -11 -14 -17 -14 -7 0 -5 8 6 20 10 12 25 18 32
16 19 -8 16 0 -9 25 -13 12 -17 18 -9 14 10 -6 13 -4 9 6 -7 17 28 24 38 8 3
-5 0 -8 -7 -7 -6 2 -14 -3 -17 -11 -3 -8 0 -11 7 -7 9 6 16 -17 13 -45 -1 -4
9 -15 21 -25 21 -18 21 -18 7 0 -15 19 -22 60 -14 87 3 11 18 16 53 18 42 1
52 -3 81 -31 l33 -33 -22 33 c-12 17 -18 32 -14 32 5 0 8 13 7 29 -1 22 2 28
12 24 8 -3 14 -1 14 5 0 6 -6 12 -12 15 -7 2 -10 8 -5 12 4 5 13 0 21 -10 12
-17 12 -21 -3 -31 -9 -7 -13 -16 -8 -20 4 -4 7 -2 7 4 0 7 7 12 15 12 8 0 15
-5 15 -11 0 -5 -4 -7 -10 -4 -5 3 -10 2 -10 -3 0 -14 26 -22 73 -22 23 0 37
-4 32 -8 -6 -4 -12 -18 -12 -31 -2 -22 -1 -22 12 -5 8 11 15 24 15 31 0 14
196 23 210 9 6 -6 9 26 9 82 l0 92 -62 0 c-34 0 -69 5 -77 11 -13 10 -13 10 0
6 10 -3 16 2 16 13 0 10 -4 16 -8 14 -4 -3 -8 -1 -8 5 0 14 131 13 149 -2 12
-9 13 -9 7 1 -5 8 -1 12 12 12 27 0 33 -10 21 -33 -6 -10 -7 -17 -2 -14 6 4
10 -22 10 -63 0 -39 -4 -70 -9 -70 -4 0 -8 -8 -8 -17 0 -15 2 -16 10 -3 8 12
10 11 10 -7 0 -23 0 -23 158 -20 142 2 158 4 155 18 -3 9 0 20 6 23 5 4 7 14
4 22 -3 9 -6 35 -7 57 l-1 42 -70 5 c-68 5 -70 6 -73 33 -2 23 1 27 25 28 15
1 31 1 36 0 4 0 7 4 7 9 0 6 5 10 11 10 5 0 7 -4 4 -10 -4 -6 18 -10 59 -10
l64 0 -3 -115 c-3 -109 -2 -115 17 -115 10 0 17 4 13 9 -3 5 0 13 6 17 8 4 9
3 5 -4 -9 -15 -16 -14 136 -16 146 -2 136 -9 137 97 l0 67 -42 1 c-23 1 -55 0
-72 -1 -28 -1 -30 2 -30 32 l0 33 103 -5 103 -5 2 -110 2 -110 30 2 c17 2 40
4 52 4 12 1 21 6 20 12 -1 5 3 11 10 14 7 3 10 -4 7 -19 -2 -13 -2 -18 1 -13
3 7 31 8 73 5 126 -11 117 -17 117 77 l0 83 -72 0 -73 0 0 30 0 29 100 0 c87
0 100 -2 101 -17 3 -33 -2 -126 -7 -133 -2 -4 1 -9 6 -11 6 -2 12 -17 13 -33
3 -33 31 -46 51 -24 8 9 8 10 -1 5 -7 -4 -13 -2 -13 4 0 6 -5 8 -11 4 -8 -4
-9 1 -4 16 5 17 4 21 -5 15 -9 -5 -11 -4 -6 4 9 15 26 5 26 -16 0 -9 3 -13 7
-10 7 8 6 234 -2 246 -2 5 -17 6 -31 3 -21 -4 -25 -2 -19 9 7 11 6 12 -6 3
-15 -11 -220 -11 -237 0 -6 3 -12 0 -15 -6 -4 -14 3 -161 8 -167 2 -1 36 -3
74 -4 l71 -1 0 -28 c0 -24 -10 -35 -23 -25 -2 1 -11 -4 -20 -11 -8 -7 -18 -9
-20 -5 -6 9 -80 8 -103 -1 -6 -2 -20 1 -29 8 -15 11 -17 29 -16 123 l2 110
-26 5 c-14 3 -27 3 -29 -1 -2 -3 -37 -5 -78 -3 -120 4 -155 2 -180 -7 -13 -6
-18 -10 -11 -10 8 -1 9 -10 3 -30 -4 -16 -7 -31 -5 -33 2 -2 5 -22 6 -45 3
-47 6 -48 92 -48 l58 0 -3 -29 c-3 -29 -5 -30 -54 -30 -28 -1 -59 -7 -68 -15
-14 -12 -17 -12 -14 -1 2 9 -8 15 -26 16 -16 2 -32 8 -36 14 -4 6 -6 53 -5
105 1 52 -1 98 -4 103 -7 10 -78 13 -246 9 -63 -2 -70 -4 -70 -22 0 -11 -4
-26 -9 -34 -6 -10 -5 -12 2 -7 16 10 16 -36 0 -52 -9 -9 -9 -12 0 -12 7 0 12
-10 12 -23 0 -22 4 -23 70 -22 70 0 70 0 70 -27 0 -16 -6 -28 -12 -29 -51 -4
-165 -5 -174 -2 -10 4 -19 125 -15 211 1 20 -9 27 -33 23 -11 -2 -122 -3 -201
-1 -46 1 -49 2 -31 15 21 16 15 18 -22 8 -18 -4 -21 -8 -10 -15 9 -7 4 -8 -14
-4 -24 5 -28 3 -29 -16 l-2 -23 -4 23 c-2 12 -12 23 -21 23 -15 1 -15 2 1 6 9
2 15 9 12 14 -4 5 1 9 10 9 9 0 13 5 10 10 -3 6 -1 10 4 10 15 0 14 -13 -1
-29 -11 -11 -9 -11 10 -2 12 6 22 17 22 24 0 8 3 8 9 -2 6 -9 10 -10 16 -2 5
9 10 9 21 0 10 -8 14 -8 14 0 0 22 30 11 31 -11 2 -23 2 -23 6 1 4 21 9 23 49
18 24 -2 46 -1 49 3 2 4 16 5 29 3 18 -4 23 -10 18 -22z m2248 9 c0 -5 -2 -10
-4 -10 -3 0 -8 5 -11 10 -3 6 -1 10 4 10 6 0 11 -4 11 -10z m1090 0 c0 -5 -7
-7 -15 -4 -8 4 -15 8 -15 10 0 2 7 4 15 4 8 0 15 -4 15 -10z m108 -49 c2 -33
-1 -62 -6 -65 -4 -3 -6 8 -4 25 4 26 1 30 -27 35 -25 5 -29 9 -20 20 9 11 8
14 -4 14 -8 0 -17 7 -21 15 -4 12 3 15 37 15 l42 0 3 -59z m235 31 c-2 -13 1
-21 5 -18 4 2 14 0 22 -5 11 -6 1 -8 -30 -6 -40 2 -45 5 -43 25 2 14 -3 22
-13 22 -10 0 -14 -6 -11 -14 4 -10 1 -13 -9 -9 -10 4 -12 0 -8 -11 5 -12 0
-16 -17 -16 -17 0 -20 3 -10 9 8 5 9 11 3 15 -6 4 -15 -1 -20 -10 -6 -11 -18
-15 -34 -12 -27 5 -27 3 -31 -113 l-2 -66 60 -1 c33 0 68 -1 78 -1 19 -1 24
-31 5 -31 -9 0 -8 -4 2 -10 10 -7 -15 -10 -80 -10 -52 0 -100 4 -107 8 -12 7
-14 133 -1 126 9 -5 17 39 20 102 l1 50 111 0 c110 -1 111 -1 109 -24z m37 -7
c0 -5 -5 -3 -10 5 -5 8 -10 20 -10 25 0 6 5 3 10 -5 5 -8 10 -19 10 -25z
m-4030 21 c0 -3 -4 -8 -10 -11 -5 -3 -10 -1 -10 4 0 6 5 11 10 11 6 0 10 -2
10 -4z m-135 -36 c3 -5 1 -10 -4 -10 -6 0 -11 5 -11 10 0 6 2 10 4 10 3 0 8
-4 11 -10z m171 -64 c21 -21 18 -51 -6 -53 -11 -1 -20 2 -20 8 0 5 5 9 12 9 6
0 3 7 -8 16 -10 8 -13 12 -5 8 11 -5 13 -3 8 9 -8 21 0 22 19 3z m-216 -21 c0
-8 11 -17 25 -21 14 -3 25 -9 25 -13 0 -4 -11 -7 -25 -7 -14 0 -25 4 -25 8 0
4 -5 8 -11 8 -5 0 -7 -4 -4 -10 3 -5 1 -10 -5 -10 -7 0 -9 7 -6 16 3 9 6 22 6
30 0 8 5 14 10 14 6 0 10 -7 10 -15z m4055 -9 c-2 -17 2 -23 13 -22 9 2 18 8
20 14 2 8 -3 10 -14 5 -12 -4 -15 -2 -12 8 2 8 15 16 28 17 17 3 21 0 17 -12
-3 -8 -2 -18 3 -21 5 -3 11 4 15 15 5 17 15 20 58 20 34 0 47 -3 38 -9 -7 -5
-10 -14 -7 -20 4 -6 2 -11 -4 -11 -6 0 -8 -5 -3 -12 11 -18 13 -38 3 -38 -4 0
-6 -9 -3 -20 4 -15 1 -20 -13 -19 -11 0 -14 3 -6 6 6 2 10 9 7 13 -3 5 -6 25
-7 45 -1 36 -12 46 -22 20 -4 -11 -21 -15 -66 -15 l-60 0 0 30 c0 17 4 30 9
30 4 0 7 -11 6 -24z m-3970 -6 c-3 -5 -12 -10 -18 -10 -7 0 -6 4 3 10 19 12
23 12 15 0z m-150 -20 c3 -5 2 -10 -4 -10 -5 0 -13 5 -16 10 -3 6 -2 10 4 10
5 0 13 -4 16 -10z m242 -62 c-3 -8 -6 -5 -6 6 -1 11 2 17 5 13 3 -3 4 -12 1
-19z m193 -33 c0 -25 0 -25 -92 -24 -51 1 -83 4 -70 6 14 3 22 12 22 24 0 17
8 19 70 19 68 0 70 -1 70 -25z m-490 -15 c0 -5 -5 -10 -11 -10 -5 0 -7 5 -4
10 3 6 8 10 11 10 2 0 4 -4 4 -10z m3643 -35 c-7 -21 -13 -19 -13 6 0 11 4 18
10 14 5 -3 7 -12 3 -20z m-2193 1 c0 -3 -4 -8 -10 -11 -5 -3 -10 -1 -10 4 0 6
5 11 10 11 6 0 10 -2 10 -4z m75 -14 c-3 -3 -11 0 -18 7 -9 10 -8 11 6 5 10
-3 15 -9 12 -12z m1935 4 c0 -3 -4 -8 -10 -11 -5 -3 -10 -1 -10 4 0 6 5 11 10
11 6 0 10 -2 10 -4z m-3646 -38 c-3 -4 -9 -8 -15 -8 -5 0 -9 4 -9 8 0 5 7 9
15 9 8 0 12 -4 9 -9z m90 -3 c3 -8 11 -14 18 -13 7 2 14 -8 16 -21 3 -18 0
-22 -12 -18 -9 4 -16 2 -16 -3 0 -6 -5 -10 -10 -10 -6 0 -5 8 2 21 11 17 10
22 -4 33 -19 14 -23 26 -9 26 5 0 11 -7 15 -15z m4529 -37 c-2 -5 -12 -8 -21
-8 -13 0 -18 9 -20 32 l-3 32 24 -25 c13 -13 22 -27 20 -31z m-4603 17 c-7 -8
-17 -15 -23 -15 -6 0 -2 8 9 19 22 21 33 19 14 -4z m40 -9 c0 -3 -4 -8 -10
-11 -5 -3 -10 -1 -10 4 0 6 5 11 10 11 6 0 10 -2 10 -4z m4634 -26 c-6 -6 -10
-3 -10 10 0 13 4 16 10 10 7 -7 7 -13 0 -20z m-4684 -2 c0 -5 0 -17 0 -28 0
-11 -5 -20 -11 -20 -6 0 -9 6 -6 13 2 6 -2 19 -10 28 -12 14 -11 16 7 15 11 0
20 -4 20 -8z m4625 -28 c3 -5 2 -10 -4 -10 -5 0 -13 5 -16 10 -3 6 -2 10 4 10
5 0 13 -4 16 -10z m74 -16 c3 -16 1 -17 -13 -5 -19 16 -21 34 -3 29 6 -3 14
-13 16 -24z m-4661 7 c7 -4 15 -29 16 -55 3 -35 1 -44 -9 -36 -6 5 -10 23 -7
40 3 21 0 32 -12 36 -9 3 -16 10 -16 15 0 11 11 11 28 0z m4640 -27 c10 -9 7
-13 -13 -16 -20 -4 -23 -2 -15 7 8 9 8 15 0 20 -5 3 -10 11 -10 18 0 6 5 5 13
-3 6 -8 18 -20 25 -26z m-73 16 c3 -5 1 -10 -4 -10 -6 0 -11 5 -11 10 0 6 2
10 4 10 3 0 8 -4 11 -10z m-4579 -22 c5 -8 2 -9 -9 -5 -10 3 -17 2 -17 -3 0
-6 5 -10 11 -10 5 0 7 -5 3 -11 -5 -8 -10 -6 -16 5 -15 27 12 51 28 24z m4604
-3 c0 -8 -7 -15 -16 -15 -14 0 -14 3 -4 15 7 8 14 15 16 15 2 0 4 -7 4 -15z
m-33 -47 c-3 -8 -6 -5 -6 6 -1 11 2 17 5 13 3 -3 4 -12 1 -19z m70 6 c-3 -3
-12 -4 -19 -1 -8 3 -5 6 6 6 11 1 17 -2 13 -5z m-37 -29 c0 -8 5 -15 10 -15 6
0 10 -8 10 -17 0 -15 -2 -16 -10 -3 -8 12 -10 11 -10 -7 0 -13 -5 -23 -10 -23
-6 0 -9 18 -8 40 3 37 18 59 18 25z m50 5 c0 -5 -2 -10 -4 -10 -3 0 -8 5 -11
10 -3 6 -1 10 4 10 6 0 11 -4 11 -10z m-4566 -15 c-4 -8 -10 -15 -15 -15 -4 0
-6 7 -3 15 4 8 10 15 15 15 4 0 6 -7 3 -15z m4440 -25 c-6 -5 -24 21 -24 34 0
6 6 1 14 -10 8 -10 12 -21 10 -24z m-4504 -6 c0 -8 -19 -13 -24 -6 -3 5 1 9 9
9 8 0 15 -2 15 -3z m4630 -4 c0 -5 -5 -10 -11 -10 -5 0 -7 5 -4 10 3 6 8 10
11 10 2 0 4 -4 4 -10z m-110 -16 c0 -2 -7 -4 -15 -4 -8 0 -15 4 -15 10 0 5 7
7 15 4 8 -4 15 -8 15 -10z m90 -48 c0 -2 -13 -6 -29 -8 -17 -2 -28 -1 -25 4 5
8 54 12 54 4z m-4487 -22 c-2 -7 -14 -10 -26 -7 -21 4 -21 4 3 -17 24 -21 24
-21 3 -15 -13 4 -23 2 -23 -3 0 -16 31 -23 46 -11 11 9 14 7 14 -10 0 -25 -43
-48 -48 -26 -2 7 -11 15 -22 18 -13 3 -17 1 -13 -9 3 -8 -1 -14 -8 -14 -7 0
-10 3 -6 6 3 3 1 18 -4 32 -8 22 -8 23 6 12 12 -10 16 -9 21 4 4 9 4 20 0 23
-8 9 22 29 44 29 10 0 16 -6 13 -12z m4512 -38 c2 -25 0 -46 -6 -46 -5 0 -9
23 -9 52 0 62 10 58 15 -6z m-65 26 c0 -5 -7 -9 -15 -9 -8 0 -15 4 -15 9 0 4
7 8 15 8 8 0 15 -4 15 -8z m-4350 -26 c0 -3 -4 -8 -10 -11 -5 -3 -10 -1 -10 4
0 6 5 11 10 11 6 0 10 -2 10 -4z m4511 -38 c15 -5 18 -78 3 -78 -6 0 -17 14
-24 31 -7 17 -20 37 -28 46 -12 12 -13 16 -2 23 8 5 19 3 26 -5 8 -7 19 -15
25 -17z m49 12 c0 -5 -4 -10 -10 -10 -5 0 -10 5 -10 10 0 6 5 10 10 10 6 0 10
-4 10 -10z m-133 -53 c0 -8 -6 -14 -14 -14 -14 0 -17 10 -6 20 10 11 20 8 20
-6z m-4517 -1 c0 -3 -4 -8 -10 -11 -5 -3 -10 -1 -10 4 0 6 5 11 10 11 6 0 10
-2 10 -4z m-110 -28 c0 -16 -3 -19 -11 -11 -6 6 -8 16 -5 22 11 17 16 13 16
-11z m4647 0 c-3 -8 -6 -5 -6 6 -1 11 2 17 5 13 3 -3 4 -12 1 -19z m-4597 -9
c-11 -8 -12 -12 -2 -16 17 -7 5 -23 -13 -17 -11 5 -12 11 -4 25 5 10 15 19 22
19 8 0 7 -4 -3 -11z m4415 -9 c-3 -5 -12 -10 -18 -10 -7 0 -6 4 3 10 19 12 23
12 15 0z m142 -2 c-2 -7 3 -18 12 -25 14 -11 14 -12 1 -12 -8 0 -24 6 -34 14
-17 13 -18 15 -3 15 9 0 17 5 17 10 0 6 3 10 6 10 3 0 4 -6 1 -12z m-114 -13
c4 -8 2 -17 -3 -20 -6 -4 -10 3 -10 14 0 25 6 27 13 6z m-4489 -44 c3 -5 -2
-15 -12 -22 -15 -13 -16 -12 -4 3 10 13 10 17 0 21 -9 4 -9 6 -1 6 6 1 14 -3
17 -8z m4607 -14 c-10 -9 -11 -8 -5 6 3 10 9 15 12 12 3 -3 0 -11 -7 -18z m26
-29 c-3 -7 -5 -2 -5 12 0 14 2 19 5 13 2 -7 2 -19 0 -25z m56 18 c6 -16 -19
-30 -28 -16 -7 11 2 30 15 30 4 0 10 -6 13 -14z m-113 -26 c0 -5 -2 -10 -4
-10 -3 0 -8 5 -11 10 -3 6 -1 10 4 10 6 0 11 -4 11 -10z m40 -10 c0 -11 -2
-20 -4 -20 -2 0 -6 9 -9 20 -3 11 -1 20 4 20 5 0 9 -9 9 -20z m-4625 -29 c-6
-5 -25 10 -25 20 0 5 6 4 14 -3 8 -7 12 -15 11 -17z m-5 -29 c0 -4 -9 -8 -20
-8 -11 0 -20 4 -20 8 0 4 9 8 20 8 11 0 20 -4 20 -8z m-69 -27 c5 3 7 -8 5
-25 -4 -37 -14 -50 -14 -18 0 13 -2 32 -4 43 -3 11 -3 14 -1 7 3 -7 9 -10 14
-7z m199 -4 c-6 -12 -15 -19 -20 -16 -5 3 -2 14 8 24 22 22 27 19 12 -8z m-40
4 c0 -7 -30 -13 -34 -7 -3 4 4 9 15 9 10 1 19 0 19 -2z m-40 -125 c0 -5 -7
-10 -15 -10 -8 0 -15 5 -15 10 0 6 7 10 15 10 8 0 15 -4 15 -10z m4600 -11 c0
9 5 8 16 -3 8 -9 19 -14 24 -11 11 7 22 -24 15 -46 -4 -11 -13 -19 -20 -19
-16 0 -9 30 9 42 7 5 6 8 -2 8 -8 0 -16 -9 -19 -20 -3 -11 -10 -20 -17 -20 -6
0 -17 -9 -24 -20 -12 -20 -42 -28 -42 -10 0 5 7 7 16 3 10 -4 15 -1 14 8 -4
26 0 40 9 34 17 -10 19 9 5 40 l-14 30 5 -28 c6 -30 -12 -44 -42 -33 -14 6
-15 9 -4 15 10 7 10 10 1 16 -9 5 -4 12 16 20 24 11 31 10 42 -3 8 -11 12 -12
12 -3z m84 -8 c-1 -15 2 -35 7 -42 6 -10 9 -7 10 11 1 21 2 22 6 5 3 -11 10
-23 17 -27 8 -5 8 -13 -2 -28 -10 -17 -10 -20 3 -20 17 0 20 -16 5 -25 -5 -3
-10 -11 -10 -16 0 -6 6 -7 13 -3 9 6 9 4 2 -7 -6 -8 -10 -33 -9 -56 0 -23 -3
-40 -7 -37 -10 6 -23 -15 -15 -23 3 -4 20 3 36 16 23 16 30 18 30 7 0 -8 -9
-18 -20 -21 -11 -3 -20 -11 -20 -16 0 -6 -5 -7 -12 -3 -8 5 -9 -4 -4 -34 4
-26 2 -42 -4 -42 -5 0 -10 9 -10 20 0 11 -4 20 -10 20 -14 0 -12 -33 3 -50 10
-12 9 -12 -6 -1 -9 8 -21 11 -25 7 -4 -4 2 -14 12 -22 23 -16 36 -18 36 -4 0
6 5 10 11 10 6 0 7 -5 2 -12 -4 -7 -6 -23 -4 -35 1 -13 -2 -23 -6 -23 -13 0
-53 -39 -53 -50 0 -6 7 -10 15 -10 8 0 15 -9 15 -20 0 -21 -15 -27 -25 -10 -4
6 -11 7 -17 4 -6 -4 -8 -2 -4 4 3 6 2 13 -4 17 -7 4 -6 13 1 27 8 15 8 19 -1
13 -6 -4 -20 3 -31 16 -22 25 -24 34 -7 23 7 -4 26 -8 42 -8 26 0 31 4 31 25
0 17 -5 23 -17 21 -22 -4 -25 36 -4 44 10 4 12 13 6 33 -7 26 -6 27 18 23 26
-5 26 -5 8 13 -23 23 -37 61 -30 80 11 28 25 15 22 -20 -1 -19 3 -40 8 -45 7
-7 9 -1 6 20 -2 17 1 36 7 44 13 15 5 23 -19 21 -8 -1 -23 -3 -33 -3 -11 -1
-15 -7 -11 -14 4 -6 3 -8 -3 -5 -14 9 -24 47 -12 47 5 0 9 9 9 20 0 21 -20 28
-21 8 0 -7 -4 -4 -9 7 -12 27 -12 43 0 25 8 -12 15 -9 43 18 27 26 33 38 29
62 -2 17 -9 30 -14 30 -5 0 -6 5 -3 10 13 21 31 9 29 -19z m46 9 c0 -5 -4 -10
-10 -10 -5 0 -10 5 -10 10 0 6 5 10 10 10 6 0 10 -4 10 -10z m-4939 -29 c7 11
9 11 9 -3 0 -21 -20 -28 -41 -15 -13 8 -14 13 -5 23 9 9 13 9 20 -3 7 -13 10
-13 17 -2z m92 2 c-7 -2 -13 -12 -13 -20 0 -9 -3 -14 -6 -10 -10 10 4 37 18
36 10 0 10 -2 1 -6z m177 -3 c0 -5 -7 -7 -15 -4 -8 4 -15 8 -15 10 0 2 7 4 15
4 8 0 15 -4 15 -10z m-162 -45 c-3 -3 -9 2 -12 12 -6 14 -5 15 5 6 7 -7 10
-15 7 -18z m-68 -20 c0 -2 -7 -5 -15 -9 -9 -3 -15 0 -15 9 0 9 6 12 15 9 8 -4
15 -7 15 -9z m37 -1 c-3 -3 -12 -4 -19 -1 -8 3 -5 6 6 6 11 1 17 -2 13 -5z
m-95 -46 c-7 -7 -12 -8 -12 -2 0 14 12 26 19 19 2 -3 -1 -11 -7 -17z m4789
-68 c-4 -11 -6 -10 -9 5 -2 11 -9 26 -14 32 -6 7 -7 21 -3 30 5 15 9 11 19
-17 7 -19 10 -42 7 -50z m-45 44 c35 -37 29 -51 -6 -16 -16 17 -30 33 -30 36
0 12 14 5 36 -20z m242 -55 c-7 -19 -14 -27 -20 -21 -6 6 -3 17 8 31 24 27 25
27 12 -10z m-4798 -11 c0 -19 -2 -20 -10 -8 -13 19 -13 30 0 30 6 0 10 -10 10
-22z m-66 -22 c-3 -9 -10 -16 -15 -16 -5 0 -4 9 3 20 14 22 21 20 12 -4z m83
-8 c-3 -8 -6 -5 -6 6 -1 11 2 17 5 13 3 -3 4 -12 1 -19z m4663 -29 c-5 -16 -7
-36 -4 -44 3 -8 1 -22 -4 -32 -10 -17 -11 -17 -17 2 -4 11 -13 31 -20 45 -13
24 -12 27 16 39 16 7 26 17 23 23 -4 6 -2 8 4 4 7 -4 8 -17 2 -37z m-4751 -54
c0 -5 -4 -3 -9 5 -5 8 -9 22 -9 30 0 16 17 -16 18 -35z m52 12 c-10 -9 -11 -8
-5 6 3 10 9 15 12 12 3 -3 0 -11 -7 -18z m44 -17 c-3 -5 -12 -7 -20 -3 -21 7
-19 13 6 13 11 0 18 -4 14 -10z m-45 -21 c0 -6 -4 -7 -10 -4 -5 3 -10 11 -10
16 0 6 5 7 10 4 6 -3 10 -11 10 -16z m-115 2 c3 -5 1 -12 -5 -16 -5 -3 -10 1
-10 9 0 18 6 21 15 7z m85 -11 c0 -5 -4 -10 -9 -10 -6 0 -13 5 -16 10 -3 6 1
10 9 10 9 0 16 -4 16 -10z m-43 -22 c-3 -8 -6 -5 -6 6 -1 11 2 17 5 13 3 -3 4
-12 1 -19z m43 -14 c0 -8 -4 -12 -10 -9 -5 3 -10 10 -10 16 0 5 5 9 10 9 6 0
10 -7 10 -16z m-23 -30 c-3 -3 -12 -4 -19 -1 -8 3 -5 6 6 6 11 1 17 -2 13 -5z
m-277 -14 c0 -5 -5 -10 -11 -10 -5 0 -7 5 -4 10 3 6 8 10 11 10 2 0 4 -4 4
-10z m400 -9 c0 -4 -6 -8 -13 -8 -8 0 -14 6 -14 13 0 7 6 10 14 7 7 -3 13 -8
13 -12z m-260 -6 c-7 -8 -17 -15 -22 -15 -11 0 14 29 26 30 5 0 3 -7 -4 -15z
m163 -11 c-7 -3 -10 -11 -7 -19 4 -9 -1 -13 -12 -11 -10 2 -20 9 -22 16 -3 7
0 10 7 6 6 -4 11 -2 11 3 0 6 8 11 18 10 9 0 12 -3 5 -5z m-140 -31 c-4 -10
-8 -12 -10 -6 -3 7 -12 9 -21 6 -13 -4 -12 -2 3 10 23 18 37 13 28 -10z m55
19 c13 11 14 10 4 -9 -10 -17 -9 -22 6 -29 9 -4 21 -6 26 -5 5 1 6 -5 2 -14
-3 -9 -2 -14 3 -11 10 7 25 -24 16 -33 -3 -3 -10 1 -15 9 -6 8 -10 10 -10 5 0
-6 4 -15 10 -21 15 -15 17 -76 2 -81 -17 -6 -47 66 -33 80 13 13 -6 50 -21 41
-7 -5 -9 0 -5 15 3 12 -1 27 -8 35 -8 7 -11 17 -7 20 4 4 8 2 10 -4 3 -7 9 -7
20 2z m4867 -2 c-3 -5 -11 -10 -16 -10 -6 0 -7 5 -4 10 3 6 11 10 16 10 6 0 7
-4 4 -10z m-4805 -47 c0 -7 7 -13 15 -13 8 0 15 -4 15 -8 0 -19 -29 -7 -39 15
-6 13 -15 22 -20 18 -13 -7 -24 12 -16 26 8 13 45 -18 45 -38z m4830 17 c0 -5
-2 -10 -4 -10 -3 0 -8 5 -11 10 -3 6 -1 10 4 10 6 0 11 -4 11 -10z m-5030 -35
c-7 -8 -17 -15 -22 -15 -11 0 14 29 26 30 5 0 3 -7 -4 -15z m4870 5 c0 -5 -2
-10 -4 -10 -3 0 -8 5 -11 10 -3 6 -1 10 4 10 6 0 11 -4 11 -10z m43 -23 c4 3
7 3 7 0 0 -3 -8 -11 -18 -16 -14 -8 -18 -5 -19 11 -2 15 1 17 11 9 7 -6 16 -8
19 -4z m96 -10 c12 -15 12 -17 -3 -11 -16 6 -20 -2 -17 -41 1 -16 0 -17 -8 -5
-4 8 -12 26 -15 40 -6 19 -5 22 3 10 9 -13 12 -11 17 8 4 12 7 21 8 20 1 -2 8
-11 15 -21z m-4912 -3 c13 -13 17 -13 24 -2 10 15 12 6 3 -16 -3 -9 -10 -16
-16 -16 -5 0 -7 4 -4 9 6 9 -23 25 -31 17 -3 -2 1 -15 7 -28 12 -22 11 -22 -5
-7 -11 11 -15 24 -10 38 8 25 12 26 32 5z m166 -39 c8 -16 5 -15 -16 5 -18 17
-22 27 -14 32 7 4 14 2 16 -5 2 -7 8 -21 14 -32z m-348 5 c3 -6 -1 -7 -9 -4
-18 7 -21 14 -7 14 6 0 13 -4 16 -10z m88 -13 c7 4 5 -4 -5 -18 -11 -17 -13
-31 -7 -40 5 -8 8 -21 8 -29 0 -11 -2 -10 -8 3 -4 10 -11 17 -16 15 -4 -2 -9
9 -9 24 -1 14 2 24 6 22 3 -2 9 0 12 5 4 5 2 12 -4 16 -5 3 -10 12 -10 18 0 7
5 4 11 -6 6 -10 15 -14 22 -10z m5027 19 c0 -3 -4 -8 -10 -11 -5 -3 -10 -1
-10 4 0 6 5 11 10 11 6 0 10 -2 10 -4z m-4970 -32 c0 -8 -4 -12 -10 -9 -5 3
-10 13 -10 21 0 8 5 12 10 9 6 -3 10 -13 10 -21z m83 -4 c3 -11 1 -20 -4 -20
-5 0 -9 2 -9 4 0 2 -3 11 -6 20 -3 9 -2 16 4 16 5 0 12 -9 15 -20z m4677 11
c0 -5 -8 -15 -17 -22 -16 -12 -17 -12 -6 2 7 9 10 19 6 22 -3 4 -1 7 5 7 7 0
12 -4 12 -9z m-4896 -29 c3 -5 -1 -9 -9 -9 -8 0 -12 4 -9 9 3 4 7 8 9 8 2 0 6
-4 9 -8z m343 -7 c0 -14 -5 -17 -37 -19 -8 -1 -25 -21 -37 -46 -25 -50 -30
-46 -10 9 17 50 36 69 48 50 8 -12 11 -11 20 4 12 21 16 21 16 2z m4583 5 c0
-5 -4 -10 -9 -10 -6 0 -13 5 -16 10 -3 6 1 10 9 10 9 0 16 -4 16 -10z m-4798
-55 c-6 -30 -6 -30 -12 -5 -4 14 -4 33 -2 44 8 31 21 -5 14 -39z m-114 10 c-6
-13 -16 -21 -21 -18 -8 5 -7 8 1 11 7 2 12 10 12 18 0 8 4 14 10 14 6 0 5 -10
-2 -25z m139 3 c-3 -8 -6 -5 -6 6 -1 11 2 17 5 13 3 -3 4 -12 1 -19z m-60 -25
c-3 -10 -5 -4 -5 12 0 17 2 24 5 18 2 -7 2 -21 0 -30z m219 15 c4 -7 3 -8 -4
-4 -7 4 -12 3 -12 -3 0 -19 19 -21 29 -4 6 10 11 13 11 8 0 -6 -5 -16 -12 -23
-9 -9 -8 -12 4 -12 9 0 19 6 21 13 4 7 6 8 6 1 1 -18 -26 -37 -34 -24 -5 8
-10 8 -20 0 -9 -8 -14 -6 -19 5 -3 8 -1 15 5 15 6 0 7 5 4 10 -6 9 1 30 10 30
2 0 7 -5 11 -12z m-143 -23 c4 -8 2 -17 -2 -20 -5 -2 -11 4 -14 15 -6 23 8 27
16 5z m4677 -14 c0 -16 -18 -22 -23 -9 -3 8 -6 6 -6 -4 -1 -10 -5 -18 -11 -18
-11 0 -14 23 -3 33 10 10 43 8 43 -2z m4 -107 c3 -8 2 -12 -4 -9 -6 3 -10 10
-10 16 0 14 7 11 14 -7z m298 -59 c0 -5 -5 -11 -10 -13 -5 -1 -9 4 -9 13 0 9
4 14 9 13 5 -2 10 -8 10 -13z m-4954 -30 c-3 -3 -9 2 -12 12 -6 14 -5 15 5 6
7 -7 10 -15 7 -18z m4922 15 c0 -5 -5 -10 -11 -10 -5 0 -7 5 -4 10 3 6 8 10
11 10 2 0 4 -4 4 -10z m21 -33 c-10 -9 -11 -8 -5 6 3 10 9 15 12 12 3 -3 0
-11 -7 -18z m-311 -171 c0 -3 -4 -8 -10 -11 -5 -3 -10 -1 -10 4 0 6 5 11 10
11 6 0 10 -2 10 -4z m-4630 -36 c0 -5 -10 -10 -22 -9 -22 0 -22 1 -3 9 11 5
21 9 23 9 1 1 2 -3 2 -9z m-257 -12 c3 -10 8 -10 21 1 9 8 19 11 23 8 3 -4 -1
-9 -10 -13 -9 -3 -14 -11 -11 -18 3 -7 -3 -19 -12 -27 -16 -12 -17 -12 -11 4
3 9 2 17 -3 17 -6 0 -10 -6 -10 -12 0 -8 -7 -5 -15 6 -13 17 -15 17 -15 4 0
-9 -4 -20 -10 -23 -6 -4 -6 4 1 22 15 39 43 56 52 31z m203 -25 c-11 -11 -17
4 -9 23 7 18 8 18 11 1 2 -10 1 -21 -2 -24z m-16 -47 c0 -1 -9 -2 -20 -2 -21
0 -29 16 -7 16 7 1 5 6 -6 14 -13 10 -15 15 -5 18 9 3 38 -31 38 -46z m4655
24 c-3 -5 -15 -10 -26 -10 -11 0 -19 -7 -19 -16 0 -8 -4 -12 -10 -9 -19 12
-10 24 23 34 17 5 33 10 35 10 2 1 0 -3 -3 -9z m-4595 -30 c0 -11 -4 -20 -10
-20 -5 0 -7 6 -4 14 3 8 -2 16 -13 19 -14 4 -14 5 5 6 16 1 22 -5 22 -19z
m-259 -15 c5 4 6 -1 2 -10 -5 -13 -7 -14 -14 -3 -7 11 -11 10 -19 -2 -5 -8
-10 -10 -10 -4 0 15 24 37 28 24 2 -5 8 -8 13 -5z m70 -2 c13 -16 12 -17 -3
-4 -10 7 -18 15 -18 17 0 8 8 3 21 -13z m81 -14 c-1 -13 5 -29 14 -36 16 -12
16 -13 -1 -20 -11 -4 -20 -2 -23 5 -2 7 -9 9 -15 5 -7 -4 -6 1 2 10 12 15 11
17 -3 17 -9 0 -16 -4 -16 -9 0 -5 -3 -17 -7 -27 -5 -13 -3 -15 8 -9 12 8 12 6
0 -8 -19 -24 -32 -11 -19 19 9 19 9 27 0 33 -9 5 -8 12 3 27 13 18 14 18 8 -6
-5 -21 -4 -23 8 -13 8 6 17 11 21 10 3 -1 10 1 14 6 4 4 2 7 -4 7 -7 0 -12 5
-12 11 0 6 6 9 13 6 6 -2 11 -15 9 -28z m4693 21 c3 -6 -1 -7 -9 -4 -18 7 -21
14 -7 14 6 0 13 -4 16 -10z m-4622 -20 c3 -11 3 -20 1 -20 -2 0 -8 9 -14 20
-6 11 -7 20 -2 20 6 0 12 -9 15 -20z m4591 -13 c-3 -9 -12 -13 -20 -10 -12 4
-11 8 3 18 21 16 26 14 17 -8z m61 -21 c0 -20 -3 -22 -17 -15 -10 5 -18 15
-18 22 0 8 3 8 9 -1 7 -11 9 -11 14 2 9 22 12 20 12 -8z m82 2 c-3 -8 -6 -5
-6 6 -1 11 2 17 5 13 3 -3 4 -12 1 -19z m-4747 2 c0 -5 -5 -10 -11 -10 -5 0
-7 5 -4 10 3 6 8 10 11 10 2 0 4 -4 4 -10z m-193 -32 c-3 -8 -6 -5 -6 6 -1 11
2 17 5 13 3 -3 4 -12 1 -19z m153 -24 c0 -3 -4 -2 -10 1 -12 8 -13 -1 -1 -23
8 -15 3 -17 -37 -19 -35 -1 -42 1 -28 9 9 5 24 7 33 4 13 -5 14 -1 9 24 -5 28
-4 30 14 20 11 -6 20 -13 20 -16z m20 7 c0 -11 -3 -22 -7 -24 -5 -3 -8 6 -8
19 0 13 3 24 8 24 4 0 7 -9 7 -19z m-124 -61 c0 -12 -4 -16 -9 -11 -5 5 -6 14
-3 20 10 15 12 14 12 -9z m4781 13 c-12 -12 37 -30 56 -21 11 5 17 5 17 -2 0
-5 -4 -10 -10 -10 -5 0 -10 -4 -10 -9 0 -5 8 -8 18 -6 9 1 11 0 4 -2 -7 -3 -9
-10 -5 -16 3 -7 -3 -4 -14 6 -12 10 -29 17 -39 15 -10 -2 -19 2 -19 7 0 6 -3
15 -7 21 -7 10 -1 24 10 24 3 0 2 -3 -1 -7z m-4742 -23 c3 -6 -1 -7 -9 -4 -18
7 -21 14 -7 14 6 0 13 -4 16 -10z m49 -13 c-4 -12 -2 -17 4 -13 6 3 14 1 18
-5 4 -7 3 -9 -4 -5 -6 3 -13 2 -17 -4 -11 -18 -22 -11 -21 13 1 12 -3 25 -9
29 -5 4 0 6 13 5 17 -1 21 -6 16 -20z m66 15 c0 -5 -7 -17 -15 -28 -14 -18
-14 -17 -4 9 12 27 19 34 19 19z m35 -20 c-3 -3 -11 0 -18 7 -9 10 -8 11 6 5
10 -3 15 -9 12 -12z m-159 -29 c-10 -10 -19 5 -10 18 6 11 8 11 12 0 2 -7 1
-15 -2 -18z m4794 -13 c0 -5 -8 -10 -17 -10 -15 0 -16 2 -3 10 19 12 20 12 20
0z m-4729 -17 c0 -10 3 -13 5 -6 3 7 12 9 19 6 11 -4 12 -10 5 -23 -7 -13 -6
-20 2 -22 6 -2 8 -10 4 -17 -9 -15 -36 3 -36 25 0 7 -9 19 -21 27 -15 11 -17
16 -7 20 23 9 28 7 29 -10z m4762 -6 c3 -8 -1 -14 -8 -14 -7 0 -11 6 -8 14 3
7 6 13 8 13 2 0 5 -6 8 -13z m-4786 -49 c-3 -8 -6 -5 -6 6 -1 11 2 17 5 13 3
-3 4 -12 1 -19z m88 -36 c-3 -3 -11 0 -18 7 -9 10 -8 11 6 5 10 -3 15 -9 12
-12z m-1 -40 c3 -5 -1 -9 -9 -9 -8 0 -12 4 -9 9 3 4 7 8 9 8 2 0 6 -4 9 -8z
m6 -35 c0 -8 -7 -14 -15 -14 -11 0 -12 4 -4 14 6 7 13 13 15 13 2 0 4 -6 4
-13z m4515 -67 c-3 -5 -12 -7 -20 -3 -21 7 -19 13 6 13 11 0 18 -4 14 -10z
m65 3 c0 -5 -5 -15 -10 -23 -8 -12 -10 -11 -10 8 0 12 5 22 10 22 6 0 10 -3
10 -7z m80 -33 c0 -5 -7 -7 -15 -4 -8 4 -15 8 -15 10 0 2 7 4 15 4 8 0 15 -4
15 -10z m-4602 -9 c11 -6 9 -9 -5 -13 -12 -3 -20 0 -20 8 0 16 6 17 25 5z
m4455 -8 c-4 -10 -2 -14 5 -9 6 3 13 2 17 -4 3 -5 4 -10 1 -10 -2 0 -12 -3
-22 -7 -12 -4 -15 -3 -10 5 4 7 2 12 -5 12 -8 0 -8 4 1 15 16 20 21 19 13 -2z
m49 -3 c15 0 38 -27 38 -44 0 -16 -46 -34 -57 -22 -4 3 5 6 18 7 22 0 22 1 4
8 -11 5 -27 6 -35 3 -13 -5 -13 -3 -1 11 7 9 17 15 21 12 5 -3 12 0 16 6 4 8
3 9 -4 5 -7 -4 -12 -5 -12 -2 0 2 -2 10 -3 18 -2 7 -2 10 0 6 3 -5 9 -8 15 -8z
m-4502 -34 c-6 -18 -5 -26 3 -29 7 -2 5 -3 -3 -3 -9 1 -14 9 -12 20 2 12 -1
16 -10 11 -7 -3 -4 1 6 9 26 21 27 20 16 -8z m1234 -67 c4 6 12 11 19 11 12 0
-23 -29 -35 -30 -5 0 -8 8 -8 18 0 13 2 14 9 3 6 -9 11 -10 15 -2z m331 1
c-27 -12 -43 -12 -25 0 8 5 22 9 30 9 10 0 8 -3 -5 -9z m215 6 c0 -3 -4 -8
-10 -11 -5 -3 -10 -1 -10 4 0 6 5 11 10 11 6 0 10 -2 10 -4z m-1035 -16 c-3
-5 -11 -10 -16 -10 -6 0 -7 5 -4 10 3 6 11 10 16 10 6 0 7 -4 4 -10z m55 0
c-8 -5 -22 -9 -30 -9 -10 0 -8 3 5 9 27 12 43 12 25 0z m3062 -45 l-4 -35 -74
0 c-52 0 -74 -4 -74 -12 0 -9 -4 -8 -10 2 -5 8 -10 10 -10 5 0 -6 5 -16 11
-22 6 -6 11 -37 12 -69 0 -67 14 -84 61 -78 16 2 36 -2 45 -9 12 -10 13 -9 7
1 -6 10 9 12 71 11 44 -1 81 -6 85 -13 6 -8 8 -7 8 2 0 6 9 12 19 12 26 0 31
18 24 84 -4 39 -2 56 6 56 6 0 11 8 11 18 0 13 -2 14 -9 3 -5 -8 -8 2 -7 28
l1 41 53 0 c33 0 51 -4 47 -10 -3 -5 -1 -10 5 -10 6 0 8 -5 4 -12 -4 -7 -3 -8
4 -4 6 4 9 13 6 21 -4 9 1 13 14 12 13 -1 18 -6 14 -17 -4 -11 0 -10 17 4 24
22 45 11 39 -20 -3 -16 -14 -19 -73 -20 -39 -1 -71 -4 -72 -8 -2 -3 -3 -45 -3
-92 0 -61 3 -83 11 -78 7 4 20 -4 31 -17 18 -22 19 -22 15 -4 -3 17 1 21 22
22 15 0 19 -1 8 -4 -14 -4 -16 -8 -6 -19 9 -11 8 -14 -2 -14 -11 0 -11 -2 0
-12 11 -10 14 -10 18 0 3 6 10 12 16 12 8 0 7 -4 -1 -12 -17 -17 -163 -22
-174 -6 -6 10 -8 10 -8 0 0 -11 -17 -13 -72 -11 -40 1 -79 7 -86 13 -9 6 -16
6 -20 -1 -9 -13 -269 -15 -294 -2 -12 6 -18 6 -18 -1 0 -6 -38 -10 -101 -10
-73 0 -98 3 -93 12 5 7 3 8 -7 2 -19 -12 -42 -11 -51 1 -5 6 -8 6 -8 -1 0 -7
-65 -11 -205 -12 -175 -1 -205 1 -205 13 0 8 -5 15 -11 15 -5 0 -7 5 -3 12 4
7 3 8 -5 4 -6 -4 -10 -15 -9 -24 2 -11 -5 -18 -20 -20 -21 -3 -22 -2 -10 19 7
13 18 28 23 34 11 11 57 16 50 4 -3 -4 2 -10 11 -13 8 -3 12 -10 9 -16 -3 -5
-1 -10 4 -10 15 0 14 27 -1 34 -10 4 -10 7 -1 12 7 3 9 20 7 44 -3 21 0 41 5
45 6 3 8 12 5 19 -12 32 -10 115 4 121 21 8 152 6 151 -2 -4 -22 3 -25 15 -7
18 24 30 13 22 -21 -7 -29 -45 -36 -47 -7 -1 16 -2 16 -6 0 -2 -10 -9 -18 -14
-18 -6 0 -8 10 -4 23 4 15 4 18 -3 8 -5 -7 -15 -11 -21 -7 -7 4 -9 1 -5 -8 4
-10 -2 -15 -18 -18 -18 -2 -24 -11 -29 -43 -3 -22 -7 -32 -8 -22 0 9 -6 17
-12 17 -5 0 -7 5 -3 12 4 7 3 8 -4 4 -8 -5 -9 -13 -2 -26 7 -13 6 -21 -5 -30
-14 -11 -14 -15 0 -30 8 -9 12 -20 8 -25 -5 -4 -3 -5 4 -1 6 3 14 2 18 -4 3
-5 -1 -10 -9 -10 -9 0 -16 -3 -16 -7 0 -5 37 -6 82 -3 46 3 105 4 131 2 42 -3
47 -5 42 -23 -5 -14 -2 -19 12 -19 12 0 14 3 6 8 -23 15 3 31 55 34 39 2 49 6
38 13 -10 8 -15 40 -18 113 l-4 102 28 0 c16 0 28 -6 29 -12 0 -10 2 -10 6 0
5 12 133 18 145 7 3 -3 3 -17 0 -31 -4 -21 -10 -25 -36 -24 -17 1 -35 1 -41 0
-5 -1 -20 -1 -33 0 -28 2 -33 -11 -35 -99 l-2 -71 55 -1 c30 -1 80 -1 110 0
39 0 51 -2 40 -9 -9 -6 -10 -10 -3 -10 6 0 15 5 18 10 4 6 12 10 18 9 7 -1 26
-1 43 0 26 1 33 6 37 28 3 15 1 35 -4 44 -4 9 -5 19 -2 23 4 4 6 35 5 71 l-2
64 108 4 c59 1 107 4 107 5 1 1 -1 -14 -3 -33z m603 -23 c-11 -11 -27 17 -20
35 6 16 8 16 16 -6 5 -13 7 -26 4 -29z m30 27 c-10 -15 -25 -10 -19 6 4 8 10
12 15 9 5 -3 7 -10 4 -15z m-4416 5 l25 -5 -30 -20 c-16 -10 -38 -18 -49 -18
l-20 1 20 5 c11 3 29 12 40 19 18 13 18 14 -12 8 -19 -4 -33 -2 -33 3 0 11 24
14 59 7z m1673 -26 c-8 -8 -9 -4 -5 13 4 13 8 18 11 10 2 -7 -1 -18 -6 -23z
m2678 1 c0 -6 -4 -7 -10 -4 -5 3 -10 11 -10 16 0 6 5 7 10 4 6 -3 10 -11 10
-16z m-4210 -1 c0 -5 -9 -8 -19 -8 -11 0 -22 3 -24 8 -3 4 6 7 19 7 13 0 24
-3 24 -7z m4205 -28 c3 -5 1 -10 -4 -10 -6 0 -11 5 -11 10 0 6 2 10 4 10 3 0
8 -4 11 -10z m-4240 -20 c3 -5 -1 -10 -9 -10 -9 0 -16 5 -16 10 0 6 4 10 9 10
6 0 13 -4 16 -10z m4265 -10 c-8 -5 -22 -10 -30 -10 -13 0 -13 1 0 10 8 5 22
10 30 10 13 0 13 -1 0 -10z m-4285 -40 c3 -11 16 -21 28 -23 12 -2 2 -4 -23
-4 -42 -1 -59 9 -60 32 0 19 49 14 55 -5z m4264 3 c-7 -10 -15 -20 -16 -22 -2
-2 -3 5 -3 17 0 14 6 22 16 22 14 0 15 -3 3 -17z m145 2 c-4 -8 -12 -15 -20
-15 -8 0 -14 7 -14 15 0 8 9 15 20 15 13 0 18 -5 14 -15z m31 -4 c-3 -6 -11
-11 -16 -11 -5 0 -4 6 3 14 14 16 24 13 13 -3z m-147 -36 c0 -29 -13 -41 -24
-24 -4 8 -3 9 5 5 8 -6 10 0 5 18 -3 15 -2 26 4 26 5 0 10 -11 10 -25z m-115
8 c-7 -2 -21 -2 -30 0 -10 3 -4 5 12 5 17 0 24 -2 18 -5z m270 0 c-7 -2 -21
-2 -30 0 -10 3 -4 5 12 5 17 0 24 -2 18 -5z m-4283 -98 c32 -11 53 -35 31 -35
-6 0 -11 4 -11 10 0 5 -7 7 -15 4 -8 -4 -15 -1 -15 5 0 6 -4 11 -10 11 -5 0
-7 -7 -4 -15 9 -22 -88 -21 -110 1 -18 17 -21 28 -6 19 6 -3 10 -1 10 4 0 6
-4 11 -10 11 -5 0 -10 5 -10 10 0 6 12 10 26 10 23 0 26 -3 22 -25 -3 -14 -1
-25 3 -25 5 0 9 8 9 18 0 23 43 43 51 23 3 -8 21 -20 39 -26z m2410 20 c0 -8
-4 -15 -9 -15 -13 0 -22 16 -14 24 11 11 23 6 23 -9z m67 -9 c-6 -13 -20 -29
-30 -35 -17 -11 -17 -11 -1 14 9 14 12 25 6 25 -6 0 -16 -9 -22 -21 -7 -11
-17 -18 -25 -16 -7 3 -18 0 -24 -6 -8 -8 -11 -8 -11 1 0 11 43 35 95 53 11 4
21 7 22 8 0 1 -4 -10 -10 -23z m1468 8 c-10 -8 -26 -13 -34 -13 -11 1 -10 3 3
6 14 4 15 7 6 13 -7 5 -1 8 16 8 26 0 27 -1 9 -14z m245 -8 c0 -3 -4 -8 -10
-11 -5 -3 -10 -1 -10 4 0 6 5 11 10 11 6 0 10 -2 10 -4z m80 0 c0 -3 -4 -8
-10 -11 -5 -3 -10 -1 -10 4 0 6 5 11 10 11 6 0 10 -2 10 -4z m-4060 -31 c0 -8
-7 -15 -15 -15 -13 0 -14 3 -3 15 16 18 18 18 18 0z m3945 -5 c-27 -12 -35
-12 -35 0 0 6 12 10 28 9 24 0 25 -1 7 -9z m50 0 c3 -5 1 -10 -4 -10 -6 0 -11
5 -11 10 0 6 2 10 4 10 3 0 8 -4 11 -10z m35 0 c0 -5 -4 -10 -10 -10 -5 0 -10
5 -10 10 0 6 5 10 10 10 6 0 10 -4 10 -10z"/>
<path d="M2306 3465 c4 -8 8 -15 10 -15 2 0 4 7 4 15 0 8 -4 15 -10 15 -5 0
-7 -7 -4 -15z"/>
<path d="M4408 3468 c5 -5 16 -8 23 -6 8 3 3 7 -10 11 -17 4 -21 3 -13 -5z"/>
<path d="M2636 3457 c3 -10 9 -15 12 -12 3 3 0 11 -7 18 -10 9 -11 8 -5 -6z"/>
<path d="M3409 3439 c-17 -17 -159 -21 -159 -5 0 6 -4 5 -9 -2 -4 -8 -11 -13
-15 -13 -21 3 -23 -2 -11 -26 15 -28 11 -48 -7 -37 -6 4 -5 -3 4 -15 9 -13 14
-35 11 -56 l-4 -35 53 4 c78 6 100 -1 96 -33 -2 -16 -8 -25 -17 -23 -7 1 -20
-5 -28 -15 -11 -14 -13 -14 -10 -2 4 13 -7 15 -72 13 l-76 -2 0 90 c1 58 5 92
13 97 9 5 7 13 -7 28 -18 19 -29 20 -158 17 -76 -1 -146 -3 -155 -3 -12 -1
-16 -8 -13 -28 2 -16 4 -52 4 -80 1 -48 3 -53 24 -53 13 0 29 6 36 13 10 10
11 9 6 -4 -5 -13 -1 -15 19 -12 32 6 59 -10 61 -36 2 -22 -17 -32 -50 -27 -11
2 -30 -1 -42 -5 -13 -5 -23 -5 -23 0 0 4 -10 8 -22 8 -13 0 -34 0 -48 1 l-25
2 5 92 c8 149 24 135 -153 132 -84 -1 -154 -2 -157 -3 -3 0 -6 -38 -5 -83 l0
-83 53 0 c28 0 52 4 52 9 0 5 6 3 13 -3 8 -6 17 -8 20 -4 4 3 7 -10 7 -30 l0
-37 -98 3 c-88 3 -98 2 -99 -14 -2 -25 26 -47 37 -30 5 9 10 10 14 2 4 -6 12
-11 17 -11 6 0 7 5 3 11 -4 8 -1 8 12 1 11 -6 36 -7 60 -3 22 4 49 4 60 1 37
-14 44 -2 44 79 l0 77 -67 2 c-36 1 -69 4 -71 7 -3 3 -7 16 -8 30 -2 18 2 25
14 26 35 1 118 1 154 0 l37 -1 -2 -85 c-1 -47 1 -85 4 -85 3 0 4 -11 1 -25 -3
-17 0 -25 9 -26 8 0 22 -2 31 -4 10 -2 20 1 24 6 3 5 10 6 16 2 7 -3 45 -7 85
-8 67 -1 73 0 74 19 0 20 1 20 9 -2 7 -17 16 -22 37 -19 26 3 26 4 27 83 1 72
-1 79 -19 80 -11 1 -44 2 -72 3 -52 1 -53 2 -53 31 0 20 5 30 15 30 25 0 29 1
44 13 12 9 13 9 7 0 -5 -10 9 -13 63 -13 72 0 92 -9 68 -32 -11 -10 -12 -15
-1 -25 8 -8 12 -39 11 -91 -1 -46 2 -79 8 -80 31 -2 233 2 288 7 14 1 17 11
17 61 0 41 -4 60 -12 60 -7 0 -5 5 5 11 9 5 17 17 17 25 0 8 4 13 9 9 5 -3 12
-1 15 4 11 17 -17 24 -29 8 -18 -25 -141 -24 -147 1 -10 43 -2 47 102 47 l100
0 2 -45 c1 -25 2 -76 2 -115 1 -62 3 -70 20 -67 12 2 16 -1 10 -9 -5 -8 -3
-10 7 -3 7 4 69 9 137 9 105 1 126 4 134 18 6 12 5 17 -3 17 -6 0 -9 6 -6 14
3 8 1 16 -4 18 -6 2 -4 15 5 33 10 19 12 31 6 33 -19 7 -37 -17 -34 -43 1 -16
-5 -30 -19 -40 -13 -9 -16 -15 -8 -15 8 0 11 -3 8 -6 -4 -4 -12 -2 -19 4 -7 5
-32 9 -56 8 -24 -1 -51 3 -60 10 -11 8 -24 9 -39 3 -21 -8 -23 -6 -24 29 -1
20 -2 53 -4 72 -1 19 1 40 5 45 11 14 0 75 -14 76 -6 1 -29 2 -51 3 -23 0 -42
7 -46 15 -4 11 -7 11 -20 0z m106 -148 c3 -5 2 -12 -3 -15 -5 -3 -9 1 -9 9 0
17 3 19 12 6z m-858 -43 c-3 -8 -6 -5 -6 6 -1 11 2 17 5 13 3 -3 4 -12 1 -19z
m-170 -74 c-3 -3 -12 -4 -19 -1 -8 3 -5 6 6 6 11 1 17 -2 13 -5z m1218 -4 c-3
-5 -14 -10 -23 -9 -14 0 -13 2 3 9 27 11 27 11 20 0z"/>
<path d="M3570 3430 c0 -5 5 -10 11 -10 5 0 7 5 4 10 -3 6 -8 10 -11 10 -2 0
-4 -4 -4 -10z"/>
<path d="M1680 3411 c0 -6 4 -13 10 -16 6 -3 7 1 4 9 -7 18 -14 21 -14 7z"/>
<path d="M2056 3387 c3 -10 9 -15 12 -12 3 3 0 11 -7 18 -10 9 -11 8 -5 -6z"/>
<path d="M1686 3368 c3 -5 10 -6 15 -3 13 9 11 12 -6 12 -8 0 -12 -4 -9 -9z"/>
<path d="M4535 3351 c3 -5 -1 -12 -7 -14 -8 -4 -7 -6 4 -6 23 -1 32 15 12 23
-8 3 -13 2 -9 -3z"/>
<path d="M1060 3346 c0 -2 8 -10 18 -17 15 -13 16 -12 3 4 -13 16 -21 21 -21
13z"/>
<path d="M1185 3289 c-9 -14 -2 -20 14 -10 8 6 9 11 3 15 -6 3 -14 1 -17 -5z"/>
<path d="M1305 3270 c-3 -5 -1 -10 4 -10 6 0 11 5 11 10 0 6 -2 10 -4 10 -3 0
-8 -4 -11 -10z"/>
<path d="M4940 3170 c0 -5 5 -10 11 -10 5 0 7 5 4 10 -3 6 -8 10 -11 10 -2 0
-4 -4 -4 -10z"/>
<path d="M3120 3110 c0 -5 5 -10 11 -10 5 0 7 5 4 10 -3 6 -8 10 -11 10 -2 0
-4 -4 -4 -10z"/>
<path d="M4675 3110 c3 -5 8 -10 11 -10 2 0 4 5 4 10 0 6 -5 10 -11 10 -5 0
-7 -4 -4 -10z"/>
<path d="M765 3090 c3 -5 8 -10 11 -10 2 0 4 5 4 10 0 6 -5 10 -11 10 -5 0 -7
-4 -4 -10z"/>
<path d="M3996 3063 c-6 -14 -5 -15 5 -6 7 7 10 15 7 18 -3 3 -9 -2 -12 -12z"/>
<path d="M4983 3045 c0 -8 4 -15 9 -15 4 0 8 4 8 9 0 6 -4 12 -8 15 -5 3 -9
-1 -9 -9z"/>
<path d="M806 3028 c3 -13 10 -30 15 -38 7 -13 8 -13 9 0 0 27 -12 60 -22 60
-5 0 -6 -10 -2 -22z"/>
<path d="M4822 3038 c2 -6 11 -12 20 -14 11 -1 15 3 11 12 -6 17 -36 19 -31 2z"/>
<path d="M4916 3041 c-4 -5 -3 -17 1 -27 4 -12 3 -15 -5 -10 -8 5 -10 2 -5 -9
5 -13 7 -14 14 -3 7 10 9 10 9 1 0 -7 5 -13 10 -13 6 0 3 11 -6 25 -8 13 -13
29 -9 35 3 5 4 10 1 10 -3 0 -7 -4 -10 -9z"/>
<path d="M876 3027 c3 -10 9 -15 12 -12 3 3 0 11 -7 18 -10 9 -11 8 -5 -6z"/>
<path d="M741 3016 c-7 -8 -8 -17 -3 -20 6 -3 12 3 15 14 6 24 4 25 -12 6z"/>
<path d="M4956 3013 c-6 -14 -5 -15 5 -6 7 7 10 15 7 18 -3 3 -9 -2 -12 -12z"/>
<path d="M625 3010 c4 -6 11 -8 16 -5 14 9 11 15 -7 15 -8 0 -12 -5 -9 -10z"/>
<path d="M825 2960 c-3 -5 -1 -10 4 -10 6 0 11 5 11 10 0 6 -2 10 -4 10 -3 0
-8 -4 -11 -10z"/>
<path d="M679 2949 c-5 -30 -7 -52 -3 -42 3 7 13 9 22 6 15 -6 16 -5 2 13 -8
10 -16 21 -17 23 -2 2 -3 2 -4 0z"/>
<path d="M4871 2934 c0 -11 3 -14 6 -6 3 7 2 16 -1 19 -3 4 -6 -2 -5 -13z"/>
<path d="M890 2905 c-7 -9 -8 -15 -2 -15 5 0 12 7 16 15 3 8 4 15 2 15 -2 0
-9 -7 -16 -15z"/>
<path d="M674 2872 c4 -7 1 -12 -8 -12 -9 0 -16 -4 -16 -9 0 -6 9 -9 20 -8 22
1 27 22 8 33 -7 4 -8 3 -4 -4z"/>
<path d="M1026 2863 c-6 -14 -5 -15 5 -6 7 7 10 15 7 18 -3 3 -9 -2 -12 -12z"/>
<path d="M710 2851 c0 -6 4 -13 10 -16 6 -3 7 1 4 9 -7 18 -14 21 -14 7z"/>
<path d="M3030 2830 c0 -5 5 -10 11 -10 5 0 7 5 4 10 -3 6 -8 10 -11 10 -2 0
-4 -4 -4 -10z"/>
<path d="M964 2819 c-3 -6 -2 -15 3 -20 5 -5 9 -1 9 11 0 23 -2 24 -12 9z"/>
<path d="M1001 2805 c0 -5 5 -18 13 -27 10 -13 15 -15 24 -6 15 15 15 28 1 28
-5 0 -7 -4 -4 -10 3 -5 2 -10 -4 -10 -5 0 -15 8 -20 18 -6 9 -10 13 -10 7z"/>
<path d="M4864 2788 l-19 -23 25 20 c14 11 27 21 29 22 2 2 0 3 -6 3 -5 0 -18
-10 -29 -22z"/>
<path d="M4930 2806 c0 -3 9 -10 20 -16 11 -6 20 -8 20 -6 0 3 -9 10 -20 16
-11 6 -20 8 -20 6z"/>
<path d="M698 2793 c7 -3 16 -2 19 1 4 3 -2 6 -13 5 -11 0 -14 -3 -6 -6z"/>
<path d="M735 2740 c-3 -5 -1 -10 4 -10 6 0 11 5 11 10 0 6 -2 10 -4 10 -3 0
-8 -4 -11 -10z"/>
<path d="M740 2690 c0 -5 5 -10 11 -10 5 0 7 5 4 10 -3 6 -8 10 -11 10 -2 0
-4 -4 -4 -10z"/>
<path d="M690 2630 c0 -5 5 -10 11 -10 5 0 7 5 4 10 -3 6 -8 10 -11 10 -2 0
-4 -4 -4 -10z"/>
<path d="M905 2630 c-3 -5 -1 -10 4 -10 6 0 11 5 11 10 0 6 -2 10 -4 10 -3 0
-8 -4 -11 -10z"/>
<path d="M4816 2621 c-4 -5 -2 -20 4 -33 8 -21 9 -20 7 10 -1 34 -3 37 -11 23z"/>
<path d="M660 2612 c0 -4 9 -15 20 -25 24 -20 27 -6 4 17 -17 18 -24 20 -24 8z"/>
<path d="M1045 2560 c-4 -6 -11 -7 -17 -4 -7 4 -8 2 -4 -5 6 -9 11 -9 22 0 14
11 18 19 10 19 -3 0 -8 -5 -11 -10z"/>
<path d="M648 2513 c7 -3 16 -2 19 1 4 3 -2 6 -13 5 -11 0 -14 -3 -6 -6z"/>
<path d="M680 2505 c-7 -9 -8 -15 -2 -15 5 0 12 7 16 15 3 8 4 15 2 15 -2 0
-9 -7 -16 -15z"/>
<path d="M4130 2515 c0 -2 10 -10 23 -16 20 -11 21 -11 8 4 -13 16 -31 23 -31
12z"/>
<path d="M4974 2388 c-4 -7 -3 -8 4 -4 7 4 12 3 12 -2 0 -5 7 -9 15 -9 20 0
19 4 -4 17 -14 7 -22 7 -27 -2z"/>
<path d="M4970 2340 c13 -8 11 -11 -7 -16 -16 -4 -23 -14 -23 -30 0 -13 -5
-24 -11 -24 -5 0 -7 5 -3 12 4 7 3 8 -4 4 -20 -12 -13 -23 18 -30 44 -8 44 -8
48 4 2 6 -1 9 -8 8 -13 -3 -37 28 -28 37 3 3 15 7 26 10 15 2 19 0 15 -11 -3
-8 0 -14 6 -14 6 0 11 6 11 13 0 15 -31 47 -46 47 -5 0 -2 -5 6 -10z"/>
<path d="M4928 2333 c7 -3 16 -2 19 1 4 3 -2 6 -13 5 -11 0 -14 -3 -6 -6z"/>
<path d="M5005 2271 c-12 -11 -3 -18 20 -13 14 2 25 7 25 11 0 7 -38 9 -45 2z"/>
<path d="M685 2240 c-3 -6 1 -7 9 -4 18 7 21 14 7 14 -6 0 -13 -4 -16 -10z"/>
<path d="M4665 2230 c-3 -5 -1 -10 4 -10 6 0 11 5 11 10 0 6 -2 10 -4 10 -3 0
-8 -4 -11 -10z"/>
<path d="M4913 2212 c-1 -22 0 -24 9 -8 6 10 6 22 2 26 -5 5 -10 -3 -11 -18z"/>
<path d="M593 2206 c-16 -17 -18 -25 -9 -46 6 -14 17 -26 24 -27 18 -4 15 15
-5 26 -14 7 -15 13 -7 21 9 9 15 7 26 -8 13 -19 14 -18 13 17 0 42 -13 47 -42
17z"/>
<path d="M740 2220 c0 -5 5 -10 10 -10 6 0 10 5 10 10 0 6 -4 10 -10 10 -5 0
-10 -4 -10 -10z"/>
<path d="M4945 2220 c-4 -7 3 -8 22 -4 38 9 42 14 10 14 -14 0 -29 -5 -32 -10z"/>
<path d="M657 2175 c-4 -8 -2 -17 3 -20 6 -4 10 3 10 14 0 25 -6 27 -13 6z"/>
<path d="M1010 2150 c0 -5 5 -10 11 -10 5 0 7 5 4 10 -3 6 -8 10 -11 10 -2 0
-4 -4 -4 -10z"/>
<path d="M1060 2109 c0 -5 5 -7 10 -4 6 3 10 8 10 11 0 2 -4 4 -10 4 -5 0 -10
-5 -10 -11z"/>
<path d="M580 2055 c0 -8 4 -15 10 -15 5 0 7 7 4 15 -4 8 -8 15 -10 15 -2 0
-4 -7 -4 -15z"/>
<path d="M4805 2060 c-4 -6 3 -10 14 -10 25 0 27 6 6 13 -8 4 -17 2 -20 -3z"/>
<path d="M666 2043 c-6 -14 -5 -15 5 -6 7 7 10 15 7 18 -3 3 -9 -2 -12 -12z"/>
<path d="M5020 2030 c0 -4 7 -13 15 -20 12 -10 15 -9 15 7 0 11 -7 20 -15 20
-8 0 -15 -4 -15 -7z"/>
<path d="M609 2017 c6 -8 7 -18 3 -22 -4 -5 -1 -5 6 -1 10 6 10 11 1 22 -6 8
-14 14 -16 14 -3 0 0 -6 6 -13z"/>
<path d="M561 1973 c-1 -13 4 -23 10 -23 5 0 8 -4 5 -9 -3 -5 1 -11 9 -15 9
-3 15 0 15 9 0 8 -5 15 -10 15 -6 0 -15 10 -20 23 l-9 22 0 -22z"/>
<path d="M4988 1978 c-5 -11 -2 -15 10 -14 9 2 18 9 20 17 3 12 2 12 -6 0 -8
-11 -10 -11 -14 0 -3 10 -6 9 -10 -3z"/>
<path d="M4950 1954 c0 -8 5 -12 10 -9 6 3 10 10 10 16 0 5 -4 9 -10 9 -5 0
-10 -7 -10 -16z"/>
<path d="M5047 1910 c3 -11 7 -20 9 -20 2 0 4 9 4 20 0 11 -4 20 -9 20 -5 0
-7 -9 -4 -20z"/>
<path d="M5055 1870 c-3 -5 -1 -10 4 -10 6 0 11 5 11 10 0 6 -2 10 -4 10 -3 0
-8 -4 -11 -10z"/>
<path d="M4940 1852 c0 -5 7 -9 15 -9 8 0 12 4 9 9 -3 4 -9 8 -15 8 -5 0 -9
-4 -9 -8z"/>
<path d="M5110 1821 c0 -5 7 -12 16 -15 14 -5 15 -4 4 9 -14 17 -20 19 -20 6z"/>
<path d="M4950 1797 c0 -4 -4 -5 -10 -2 -6 4 -10 -6 -9 -22 0 -28 0 -28 12 -5
7 16 17 22 29 19 10 -3 18 0 18 7 0 6 -9 12 -20 12 -11 0 -20 -4 -20 -9z"/>
<path d="M565 1790 c-3 -5 1 -10 9 -10 9 0 16 5 16 10 0 6 -4 10 -9 10 -6 0
-13 -4 -16 -10z"/>
<path d="M625 1790 c-3 -5 -1 -10 4 -10 6 0 11 5 11 10 0 6 -2 10 -4 10 -3 0
-8 -4 -11 -10z"/>
<path d="M4885 1740 c3 -5 8 -10 11 -10 2 0 4 5 4 10 0 6 -5 10 -11 10 -5 0
-7 -4 -4 -10z"/>
<path d="M4965 1739 c-11 -16 -1 -19 13 -3 7 8 8 14 3 14 -5 0 -13 -5 -16 -11z"/>
<path d="M4990 1730 c-8 -5 -12 -12 -9 -15 4 -3 12 1 19 10 14 17 11 19 -10 5z"/>
<path d="M5020 1730 c-8 -26 -7 -41 2 -32 6 6 8 16 5 24 -3 7 -6 11 -7 8z"/>
<path d="M4940 1704 c0 -8 5 -12 10 -9 6 4 8 11 5 16 -9 14 -15 11 -15 -7z"/>
<path d="M603 1695 c-7 -8 -9 -16 -4 -19 5 -3 12 1 15 10 8 22 4 25 -11 9z"/>
<path d="M4978 1693 c7 -3 16 -2 19 1 4 3 -2 6 -13 5 -11 0 -14 -3 -6 -6z"/>
<path d="M4937 1609 c7 -7 15 -10 18 -7 3 3 -2 9 -12 12 -14 6 -15 5 -6 -5z"/>
<path d="M4667 1551 c-6 -24 7 -48 18 -31 4 6 14 9 22 6 8 -4 11 -1 8 5 -4 6
-14 8 -22 5 -12 -5 -14 -1 -10 14 3 11 2 20 -3 20 -4 0 -10 -9 -13 -19z"/>
<path d="M4945 1560 c-3 -5 -1 -10 4 -10 6 0 11 5 11 10 0 6 -2 10 -4 10 -3 0
-8 -4 -11 -10z"/>
<path d="M4730 1530 c6 -11 12 -20 14 -20 2 0 2 9 -1 20 -3 11 -9 20 -15 20
-5 0 -4 -9 2 -20z"/>
<path d="M528 1499 c-3 -8 0 -25 6 -38 12 -21 13 -21 27 -5 8 10 9 15 2 11 -7
-4 -15 3 -20 20 -7 19 -11 23 -15 12z"/>
<path d="M470 1471 c0 -5 5 -13 10 -16 6 -3 10 -2 10 4 0 5 -4 13 -10 16 -5 3
-10 2 -10 -4z"/>
<path d="M500 1461 c0 -5 7 -11 14 -14 10 -4 13 -1 9 9 -6 15 -23 19 -23 5z"/>
<path d="M4875 1460 c3 -5 8 -10 11 -10 2 0 4 5 4 10 0 6 -5 10 -11 10 -5 0
-7 -4 -4 -10z"/>
<path d="M450 1410 c0 -16 5 -30 11 -30 6 0 8 9 4 21 -5 14 -2 25 6 30 11 7
10 9 -3 9 -13 0 -18 -8 -18 -30z"/>
<path d="M4633 1415 c-3 -10 0 -21 8 -26 22 -14 28 -11 22 11 -7 28 -22 35
-30 15z"/>
<path d="M660 1380 c0 -5 5 -10 11 -10 5 0 7 5 4 10 -3 6 -8 10 -11 10 -2 0
-4 -4 -4 -10z"/>
<path d="M4607 1377 c-3 -8 1 -14 9 -14 16 0 19 13 5 21 -5 3 -11 0 -14 -7z"/>
<path d="M4807 1374 c-13 -13 -7 -24 13 -24 11 0 20 5 20 11 0 5 -4 8 -9 5 -5
-4 -11 -1 -13 5 -2 5 -7 7 -11 3z"/>
<path d="M416 1361 c-4 -5 -2 -12 3 -15 5 -4 12 -2 15 3 4 5 2 12 -3 15 -5 4
-12 2 -15 -3z"/>
<path d="M450 1355 c0 -8 4 -15 10 -15 5 0 7 7 4 15 -4 8 -8 15 -10 15 -2 0
-4 -7 -4 -15z"/>
<path d="M4674 1329 c-4 -8 -3 -9 4 -5 22 14 12 -23 -10 -38 -15 -11 -18 -16
-8 -16 12 -1 11 -3 -2 -11 -25 -14 -41 -46 -28 -54 6 -4 10 -3 9 2 -4 22 2 34
14 27 6 -4 9 -4 5 1 -10 11 34 44 52 38 13 -4 13 -3 0 9 -9 7 -14 20 -12 30 4
20 -14 33 -24 17z"/>
<path d="M4645 1309 c-4 -6 -5 -12 -2 -15 2 -3 7 2 10 11 7 17 1 20 -8 4z"/>
<path d="M390 1306 c0 -2 8 -10 18 -17 15 -13 16 -12 3 4 -13 16 -21 21 -21
13z"/>
<path d="M410 1259 c0 -5 5 -7 10 -4 6 3 10 8 10 11 0 2 -4 4 -10 4 -5 0 -10
-5 -10 -11z"/>
<path d="M440 1260 c0 -5 5 -10 10 -10 6 0 10 5 10 10 0 6 -4 10 -10 10 -5 0
-10 -4 -10 -10z"/>
<path d="M4700 1224 c0 -8 5 -12 10 -9 6 4 8 11 5 16 -9 14 -15 11 -15 -7z"/>
<path d="M4675 1219 c-4 -6 -5 -12 -2 -15 2 -3 7 2 10 11 7 17 1 20 -8 4z"/>
<path d="M406 1183 c-4 -5 -12 -8 -17 -8 -5 0 -9 -3 -9 -7 0 -5 0 -12 0 -18 0
-21 28 -9 32 15 6 27 5 29 -6 18z"/>
<path d="M455 1171 c-7 -13 14 -25 47 -27 26 -2 38 9 21 19 -20 11 -62 16 -68
8z"/>
<path d="M498 1124 c-4 -15 1 -25 16 -34 18 -11 19 -11 10 1 -7 8 -14 23 -16
34 -4 19 -4 19 -10 -1z"/>
<path d="M590 1130 c0 -5 5 -10 11 -10 5 0 7 5 4 10 -3 6 -8 10 -11 10 -2 0
-4 -4 -4 -10z"/>
<path d="M4821 1114 c0 -11 3 -14 6 -6 3 7 2 16 -1 19 -3 4 -6 -2 -5 -13z"/>
<path d="M4671 1073 c2 -27 -1 -37 -10 -35 -7 1 -15 -7 -18 -18 -3 -11 -9 -20
-14 -20 -5 0 -9 -8 -8 -17 0 -10 3 -13 5 -6 3 7 12 9 20 6 8 -3 14 1 15 8 0 8
4 4 9 -8 5 -13 14 -23 21 -23 6 0 9 7 5 15 -3 8 -1 15 5 15 6 0 8 4 5 8 -3 5
1 9 9 9 8 0 15 -4 15 -9 0 -4 -5 -8 -11 -8 -6 0 -9 -6 -6 -12 2 -7 14 -12 25
-10 12 2 22 -2 22 -7 0 -6 6 -11 13 -11 6 1 2 9 -11 19 -15 13 -20 25 -15 37
4 12 3 15 -5 10 -7 -4 -12 -1 -12 8 0 9 -5 16 -11 16 -5 0 -7 -5 -3 -12 4 -7
3 -8 -4 -4 -7 4 -12 18 -12 32 0 14 -4 23 -9 20 -5 -4 -7 3 -4 14 3 12 0 20
-7 20 -7 0 -11 -14 -9 -37z"/>
<path d="M425 1087 c-4 -10 -3 -23 3 -29 14 -14 21 3 12 27 -7 19 -8 19 -15 2z"/>
<path d="M4640 1081 c0 -6 5 -13 10 -16 6 -3 10 1 10 9 0 9 -4 16 -10 16 -5 0
-10 -4 -10 -9z"/>
<path d="M4755 1080 c3 -5 10 -10 16 -10 5 0 9 5 9 10 0 6 -7 10 -16 10 -8 0
-12 -4 -9 -10z"/>
<path d="M4777 1066 c-17 -13 -16 -14 3 -19 15 -4 20 0 20 14 0 22 0 22 -23 5z"/>
<path d="M4300 1050 c0 -5 5 -10 10 -10 6 0 10 5 10 10 0 6 -4 10 -10 10 -5 0
-10 -4 -10 -10z"/>
<path d="M392 1037 c-6 -6 -13 -26 -16 -42 l-6 -30 12 32 c17 42 27 51 38 33
5 -8 12 -11 17 -7 4 5 1 12 -7 17 -20 13 -26 12 -38 -3z"/>
<path d="M483 1014 c-17 -18 -16 -19 7 -21 11 -1 23 3 26 9 4 6 2 8 -4 4 -6
-3 -12 0 -14 8 -2 12 -5 12 -15 0z"/>
<path d="M410 989 c25 -46 60 -74 60 -48 0 5 -4 7 -10 4 -10 -6 -14 6 -11 38
3 20 -15 23 -22 5 -3 -8 -6 -6 -6 5 -1 9 -6 17 -11 17 -7 0 -7 -7 0 -21z"/>
<path d="M4808 943 c5 -21 7 -23 10 -9 2 10 0 22 -6 28 -6 6 -7 0 -4 -19z"/>
<path d="M397 953 c-4 -3 -7 -11 -7 -17 0 -6 5 -5 12 2 6 6 9 14 7 17 -3 3 -9
2 -12 -2z"/>
<path d="M4696 944 c-4 -9 -4 -19 -1 -22 3 -3 5 -1 5 5 0 6 11 8 25 5 15 -2
25 0 25 7 0 6 -4 11 -9 11 -5 0 -16 3 -24 6 -8 3 -17 -2 -21 -12z"/>
<path d="M610 932 c0 -4 9 -13 20 -20 11 -7 20 -9 20 -4 0 4 -9 13 -20 20 -11
7 -20 9 -20 4z"/>
<path d="M414 912 c-7 -12 -6 -31 4 -67 13 -45 15 -48 28 -30 8 10 11 27 8 37
-3 11 -1 25 6 33 8 9 8 15 0 20 -6 4 -9 1 -8 -7 2 -7 -3 -12 -9 -10 -7 1 -13
-3 -13 -10 0 -6 -3 -8 -6 -5 -4 4 -2 12 4 20 6 7 8 18 4 24 -6 9 -11 7 -18 -5z
m36 -76 c0 -3 -4 -8 -10 -11 -5 -3 -10 -1 -10 4 0 6 5 11 10 11 6 0 10 -2 10
-4z"/>
<path d="M4776 905 c-3 -8 -1 -15 3 -15 5 0 11 7 15 15 3 8 1 15 -3 15 -5 0
-11 -7 -15 -15z"/>
<path d="M2485 899 c-11 -17 1 -21 15 -4 8 9 8 15 2 15 -6 0 -14 -5 -17 -11z"/>
<path d="M4680 898 c0 -6 9 -8 20 -5 11 3 20 1 20 -4 0 -5 9 -9 20 -9 22 0 28
16 8 18 -7 1 -25 3 -40 6 -16 2 -28 0 -28 -6z"/>
<path d="M4646 887 c2 -7 14 -13 25 -14 21 -2 21 -1 3 12 -24 18 -35 19 -28 2z"/>
<path d="M4799 890 c-1 -8 -1 -18 0 -22 0 -5 -5 -8 -11 -8 -9 0 -9 -3 1 -9 8
-5 16 -17 17 -26 4 -26 14 -31 14 -7 0 11 -5 24 -10 27 -7 5 -8 11 -1 19 6 7
6 17 1 26 -9 13 -10 13 -11 0z"/>
<path d="M483 852 c-1 -22 0 -24 9 -8 6 10 6 22 2 26 -5 5 -10 -3 -11 -18z"/>
<path d="M4596 873 c-4 -5 -12 -8 -17 -8 -11 0 -13 -19 -2 -22 4 -2 14 6 21
17 12 20 11 26 -2 13z"/>
<path d="M4620 860 c0 -5 5 -10 11 -10 5 0 7 5 4 10 -3 6 -8 10 -11 10 -2 0
-4 -4 -4 -10z"/>
<path d="M4704 847 c-5 -12 -15 -21 -22 -19 -7 1 -12 -5 -12 -13 0 -9 9 -15
22 -15 12 0 18 3 15 7 -4 3 1 11 10 18 11 8 13 17 7 28 -8 14 -11 14 -20 -6z"/>
<path d="M4671 844 c6 -7 16 -11 21 -8 11 7 3 17 -18 20 -12 2 -13 -1 -3 -12z"/>
<path d="M370 830 c0 -5 5 -10 11 -10 5 0 7 5 4 10 -3 6 -8 10 -11 10 -2 0 -4
-4 -4 -10z"/>
<path d="M507 820 c3 -11 10 -20 15 -20 6 0 7 -8 3 -17 -4 -13 -3 -15 5 -7 8
8 8 18 -1 37 -14 32 -29 36 -22 7z"/>
<path d="M482 804 c-7 -8 -8 -14 -2 -14 5 0 10 -6 10 -13 0 -8 -7 -14 -15 -14
-8 0 -15 7 -15 14 0 8 -5 11 -10 8 -6 -3 -8 -19 -5 -36 4 -21 1 -29 -10 -29
-14 0 -20 22 -16 62 2 12 -3 16 -13 12 -9 -3 -13 -11 -10 -16 4 -6 8 -20 9
-32 1 -11 3 -26 4 -33 0 -7 8 -10 16 -6 10 3 15 1 13 -7 -2 -7 3 -15 10 -17 8
-3 10 1 5 13 -5 14 -2 16 15 12 12 -4 22 -2 22 3 0 5 -7 9 -15 9 -8 0 -15 5
-15 10 0 11 11 13 34 4 9 -3 16 -14 16 -24 0 -11 4 -21 9 -24 5 -3 8 2 7 11 0
10 7 19 16 21 14 3 16 -1 11 -15 -6 -17 -6 -17 10 -1 15 14 16 21 5 37 -10 17
-13 18 -23 4 -8 -10 -19 -13 -33 -9 -29 10 -29 29 1 21 20 -6 20 -6 5 6 -9 8
-18 24 -20 35 -3 19 -5 20 -16 8z"/>
<path d="M4614 737 c-8 -21 2 -35 16 -21 5 5 6 15 0 24 -8 12 -10 12 -16 -3z"/>
<path d="M4892 721 c11 -18 11 -23 -2 -32 -12 -9 -12 -10 3 -5 15 5 17 2 12
-17 -5 -17 -4 -19 4 -6 12 19 0 71 -18 77 -10 3 -10 0 1 -17z"/>
<path d="M4671 718 c0 -10 -6 -18 -12 -18 -8 0 -7 -6 2 -17 10 -11 10 -14 2
-9 -7 4 -13 2 -13 -3 0 -6 -7 -11 -15 -11 -19 0 -19 -7 -1 -25 8 -8 23 -12 35
-10 28 5 27 -11 -1 -19 -15 -3 -27 0 -34 9 -6 8 -16 15 -22 15 -6 0 0 -11 13
-25 14 -13 25 -32 25 -41 0 -12 3 -14 13 -6 10 8 12 2 9 -29 -3 -26 0 -39 8
-39 8 0 11 11 8 30 -3 18 1 35 8 41 10 8 13 4 11 -17 -1 -17 3 -27 13 -29 10
-2 15 7 16 26 1 16 -3 29 -8 29 -5 0 -7 4 -4 9 3 5 15 7 25 4 10 -3 22 0 25 6
4 6 -2 8 -16 6 l-23 -4 22 17 23 17 -29 0 c-17 0 -27 -4 -24 -11 2 -7 -1 -15
-8 -19 -12 -8 -10 21 5 56 5 10 -1 20 -18 29 -14 7 -27 22 -29 34 -3 15 -5 16
-6 4z"/>
<path d="M4801 714 c0 -11 3 -14 6 -6 3 7 2 16 -1 19 -3 4 -6 -2 -5 -13z"/>
<path d="M4255 710 c3 -5 10 -10 16 -10 5 0 9 5 9 10 0 6 -7 10 -16 10 -8 0
-12 -4 -9 -10z"/>
<path d="M4560 705 c14 -8 30 -14 35 -14 6 0 -1 6 -15 14 -14 8 -29 14 -35 14
-5 0 1 -6 15 -14z"/>
<path d="M4701 703 c7 -12 15 -20 18 -17 3 2 -3 12 -13 22 -17 16 -18 16 -5
-5z"/>
<path d="M580 686 c-7 -9 -15 -14 -19 -12 -4 3 -6 -8 -5 -22 1 -15 -4 -34 -10
-42 -10 -13 -9 -13 6 -1 10 7 16 17 13 21 -2 3 3 17 12 30 14 20 17 21 22 7 6
-15 8 -14 19 4 9 14 10 19 2 14 -7 -4 -16 -2 -20 4 -5 9 -10 8 -20 -3z"/>
<path d="M354 673 c-15 -16 -15 -17 2 -24 28 -11 54 -10 54 2 0 5 -4 7 -10 4
-5 -3 -10 -1 -10 5 0 6 -5 8 -12 4 -8 -5 -9 -2 -5 9 8 22 3 21 -19 0z"/>
<path d="M410 680 c0 -5 5 -10 11 -10 5 0 7 5 4 10 -3 6 -8 10 -11 10 -2 0 -4
-4 -4 -10z"/>
<path d="M4804 675 c3 -8 1 -15 -4 -15 -6 0 -10 5 -10 11 0 6 -7 4 -15 -5 -19
-19 -19 -30 -1 -23 10 4 16 -2 18 -15 2 -15 11 -21 35 -23 22 -2 30 1 27 10
-7 16 19 26 37 14 20 -12 59 -11 59 2 0 6 -9 9 -20 6 -12 -3 -27 2 -36 11 -13
12 -17 13 -24 2 -4 -7 -13 -9 -19 -6 -6 4 -11 1 -12 -6 0 -7 -5 2 -10 20 -5
17 -14 32 -20 32 -6 0 -9 -7 -5 -15z"/>
<path d="M506 653 c-6 -14 -5 -15 5 -6 7 7 10 15 7 18 -3 3 -9 -2 -12 -12z"/>
<path d="M4564 646 c-8 -18 -8 -28 3 -42 8 -11 13 -13 13 -5 0 11 3 11 15 1
10 -9 15 -9 15 -1 0 6 -4 12 -10 12 -5 1 -14 2 -19 3 -14 2 -26 16 -14 16 6 0
13 9 16 20 7 28 -6 25 -19 -4z"/>
<path d="M3905 639 c-4 -6 -5 -12 -2 -15 2 -3 7 2 10 11 7 17 1 20 -8 4z"/>
<path d="M4735 640 c3 -5 8 -10 11 -10 2 0 4 5 4 10 0 6 -5 10 -11 10 -5 0 -7
-4 -4 -10z"/>
<path d="M410 630 c-8 -5 -11 -10 -5 -10 5 0 4 -5 -2 -11 -15 -15 -5 -39 14
-39 10 0 14 -7 10 -20 -3 -12 0 -20 8 -20 17 0 25 46 11 61 -8 9 -7 10 3 4 9
-5 12 -4 7 3 -10 17 -26 15 -26 -3 0 -8 -4 -15 -9 -15 -6 0 -6 12 -1 30 5 17
8 30 7 30 -1 0 -9 -5 -17 -10z"/>
<path d="M590 620 c0 -5 5 -10 11 -10 5 0 7 5 4 10 -3 6 -8 10 -11 10 -2 0 -4
-4 -4 -10z"/>
<path d="M496 605 c-9 -26 -7 -32 5 -12 6 10 9 21 6 23 -2 3 -7 -2 -11 -11z"/>
<path d="M4870 610 c0 -5 5 -10 11 -10 5 0 7 5 4 10 -3 6 -8 10 -11 10 -2 0
-4 -4 -4 -10z"/>
<path d="M3375 600 c3 -5 11 -10 16 -10 6 0 7 5 4 10 -3 6 -11 10 -16 10 -6 0
-7 -4 -4 -10z"/>
<path d="M4479 601 c8 -5 10 -14 6 -21 -6 -9 -4 -11 5 -5 9 6 12 4 8 -7 -4 -8
-1 -15 6 -15 10 0 11 7 2 29 -6 15 -17 28 -26 28 -12 0 -13 -2 -1 -9z"/>
<path d="M3327 579 c7 -7 15 -10 18 -7 3 3 -2 9 -12 12 -14 6 -15 5 -6 -5z"/>
<path d="M4615 545 c0 -26 18 -34 31 -13 5 7 3 8 -6 3 -9 -5 -10 -2 -5 14 4
14 2 21 -7 21 -7 0 -13 -11 -13 -25z"/>
<path d="M340 550 c-8 -5 -12 -12 -9 -15 4 -3 12 1 19 10 14 17 11 19 -10 5z"/>
<path d="M3310 540 c0 -5 5 -10 11 -10 5 0 7 5 4 10 -3 6 -8 10 -11 10 -2 0
-4 -4 -4 -10z"/>
<path d="M456 524 c-8 -21 -8 -21 9 -21 8 0 15 9 15 19 0 22 -16 24 -24 2z"/>
<path d="M3345 520 c3 -5 8 -10 11 -10 2 0 4 5 4 10 0 6 -5 10 -11 10 -5 0 -7
-4 -4 -10z"/>
<path d="M4000 485 c0 -5 5 -17 10 -25 5 -8 10 -10 10 -5 0 6 -5 17 -10 25 -5
8 -10 11 -10 5z"/>
<path d="M541 467 c-6 -8 -8 -17 -4 -20 12 -12 19 -7 19 13 0 24 0 24 -15 7z"/>
<path d="M4455 460 c-3 -5 -1 -10 4 -10 6 0 11 5 11 10 0 6 -2 10 -4 10 -3 0
-8 -4 -11 -10z"/>
<path d="M580 460 c-1 -3 -3 -18 -6 -35 -3 -28 -3 -29 7 -6 5 13 8 29 5 35 -2
6 -5 9 -6 6z"/>
<path d="M600 446 c0 -2 7 -7 16 -10 8 -3 12 -2 9 4 -6 10 -25 14 -25 6z"/>
<path d="M4787 444 c-10 -11 5 -34 22 -34 14 1 14 2 -2 11 -9 6 -15 14 -12 20
7 10 2 12 -8 3z"/>
<path d="M4722 414 c-7 -8 -8 -14 -3 -14 10 0 25 19 20 25 -2 1 -10 -3 -17
-11z"/>
<path d="M2400 390 c-8 -5 -12 -12 -9 -15 4 -3 12 1 19 10 14 17 11 19 -10 5z"/>
<path d="M1373 376 c3 -7 1 -18 -5 -24 -7 -7 5 -10 40 -9 37 0 49 4 45 14 -6
15 -33 18 -33 3 0 -5 -5 -10 -11 -10 -6 0 -8 7 -5 16 3 8 2 12 -4 9 -6 -3 -10
-1 -10 4 0 6 -5 11 -11 11 -6 0 -9 -6 -6 -14z"/>
<path d="M3035 300 c3 -5 8 -10 11 -10 2 0 4 5 4 10 0 6 -5 10 -11 10 -5 0 -7
-4 -4 -10z"/>
<path d="M3425 190 c3 -5 8 -10 11 -10 2 0 4 5 4 10 0 6 -5 10 -11 10 -5 0 -7
-4 -4 -10z"/>
<path d="M2770 179 c0 -5 5 -7 10 -4 6 3 10 8 10 11 0 2 -4 4 -10 4 -5 0 -10
-5 -10 -11z"/>
<path d="M676 165 c4 -8 8 -15 10 -15 2 0 4 7 4 15 0 8 -4 15 -10 15 -5 0 -7
-7 -4 -15z"/>
<path d="M2564 149 c-3 -6 -1 -16 6 -22 10 -9 12 -8 7 5 -3 9 -1 19 6 22 9 3
9 5 0 5 -6 1 -15 -4 -19 -10z"/>
<path d="M1256 87 c3 -10 9 -15 12 -12 3 3 0 11 -7 18 -10 9 -11 8 -5 -6z"/>
<path d="M2330 96 c0 -2 7 -7 16 -10 8 -3 12 -2 9 4 -6 10 -25 14 -25 6z"/>
<path d="M2425 90 c3 -5 8 -10 11 -10 2 0 4 5 4 10 0 6 -5 10 -11 10 -5 0 -7
-4 -4 -10z"/>
<path d="M2810 89 c0 -5 5 -7 10 -4 6 3 10 8 10 11 0 2 -4 4 -10 4 -5 0 -10
-5 -10 -11z"/>
<path d="M1780 85 c0 -5 5 -17 10 -25 5 -8 10 -10 10 -5 0 6 -5 17 -10 25 -5
8 -10 11 -10 5z"/>
<path d="M2240 85 c0 -5 5 -17 10 -25 5 -8 10 -10 10 -5 0 6 -5 17 -10 25 -5
8 -10 11 -10 5z"/>
<path d="M2996 77 c3 -10 9 -15 12 -12 3 3 0 11 -7 18 -10 9 -11 8 -5 -6z"/>
<path d="M1875 69 c-4 -6 -5 -12 -2 -15 2 -3 7 2 10 11 7 17 1 20 -8 4z"/>
<path d="M2180 70 c-13 -8 -13 -10 2 -10 9 0 20 5 23 10 8 13 -5 13 -25 0z"/>
<path d="M1947 59 c7 -7 15 -10 18 -7 3 3 -2 9 -12 12 -14 6 -15 5 -6 -5z"/>
<path d="M2810 61 c0 -5 9 -7 20 -4 11 3 20 7 20 9 0 2 -9 4 -20 4 -11 0 -20
-4 -20 -9z"/>
<path d="M4788 3473 c7 -3 16 -2 19 1 4 3 -2 6 -13 5 -11 0 -14 -3 -6 -6z"/>
<path d="M4750 3460 c-13 -8 -12 -10 3 -10 9 0 17 5 17 10 0 12 -1 12 -20 0z"/>
<path d="M4870 3450 c0 -5 5 -10 10 -10 6 0 10 5 10 10 0 6 -4 10 -10 10 -5 0
-10 -4 -10 -10z"/>
<path d="M4701 3414 c0 -11 3 -14 6 -6 3 7 2 16 -1 19 -3 4 -6 -2 -5 -13z"/>
<path d="M4676 3253 c-6 -14 -5 -15 5 -6 7 7 10 15 7 18 -3 3 -9 -2 -12 -12z"/>
<path d="M1020 3220 c0 -5 5 -10 11 -10 5 0 7 5 4 10 -3 6 -8 10 -11 10 -2 0
-4 -4 -4 -10z"/>
<path d="M605 2720 c-3 -5 -1 -10 4 -10 6 0 11 5 11 10 0 6 -2 10 -4 10 -3 0
-8 -4 -11 -10z"/>
<path d="M5211 2674 c0 -11 3 -14 6 -6 3 7 2 16 -1 19 -3 4 -6 -2 -5 -13z"/>
<path d="M5228 2193 c7 -3 16 -2 19 1 4 3 -2 6 -13 5 -11 0 -14 -3 -6 -6z"/>
<path d="M5194 2166 c-8 -22 3 -33 18 -18 9 9 9 15 0 24 -9 9 -13 7 -18 -6z"/>
<path d="M5210 2125 c-10 -12 -10 -15 4 -15 9 0 16 7 16 15 0 8 -2 15 -4 15
-2 0 -9 -7 -16 -15z"/>
<path d="M5240 1850 c0 -5 5 -10 10 -10 6 0 10 5 10 10 0 6 -4 10 -10 10 -5 0
-10 -4 -10 -10z"/>
<path d="M5160 1989 c0 -5 5 -7 10 -4 6 3 10 8 10 11 0 2 -4 4 -10 4 -5 0 -10
-5 -10 -11z"/>
<path d="M3330 89 c-13 -9 -13 -10 0 -6 8 2 24 0 35 -6 18 -9 19 -9 6 6 -16
20 -21 20 -41 6z"/>
<path d="M3527 89 c7 -7 15 -10 18 -7 3 3 -2 9 -12 12 -14 6 -15 5 -6 -5z"/>
<path d="M3650 80 c13 -11 28 -20 34 -20 13 0 -35 39 -48 40 -5 0 1 -9 14 -20z"/>
<path d="M3709 83 c-13 -16 -12 -17 4 -4 9 7 17 15 17 17 0 8 -8 3 -21 -13z"/>
<path d="M4030 96 c0 -2 6 -9 14 -15 11 -9 16 -9 22 0 4 8 3 9 -4 5 -7 -4 -12
-2 -12 3 0 6 -4 11 -10 11 -5 0 -10 -2 -10 -4z"/>
<path d="M4160 82 c0 -4 4 -13 9 -20 7 -11 9 -11 14 1 3 9 -1 18 -9 21 -8 3
-14 2 -14 -2z"/>
<path d="M4405 80 c-3 -5 -1 -10 4 -10 6 0 11 5 11 10 0 6 -2 10 -4 10 -3 0
-8 -4 -11 -10z"/>
<path d="M3350 60 c8 -5 20 -10 25 -10 6 0 3 5 -5 10 -8 5 -19 10 -25 10 -5 0
-3 -5 5 -10z"/>
<path d="M3518 63 c7 -3 16 -2 19 1 4 3 -2 6 -13 5 -11 0 -14 -3 -6 -6z"/>
<path d="M4485 60 c3 -5 8 -10 11 -10 2 0 4 5 4 10 0 6 -5 10 -11 10 -5 0 -7
-4 -4 -10z"/>
<path d="M640 69 c0 -5 5 -7 10 -4 6 3 10 8 10 11 0 2 -4 4 -10 4 -5 0 -10 -5
-10 -11z"/>
</g>
</svg>
